<svg xmlns="http://www.w3.org/2000/svg" xmlns:xlink="http://www.w3.org/1999/xlink" viewBox="0 0 382.24 678.94"><defs><style>.cls-1{fill:none;}.cls-2{fill:#2fbec0;}.cls-3{fill:#f6f7f8;}.cls-4{opacity:0.09;fill:url(#New_Pattern_2);}</style><pattern id="New_Pattern_2" data-name="New Pattern 2" width="666.71" height="562.57" patternTransform="translate(-915.4 -439.7)" patternUnits="userSpaceOnUse" viewBox="0 0 666.71 562.57"><rect class="cls-1" width="666.71" height="562.57"/><path class="cls-2" d="M238.34,558.88c-4.06-3.69-4.39-8-1.86-12.59s4.48-10.07,8.14-13.67c2.6-2.57,8.17-4.4,11.38-3.36,2.37.77,4.24,6.66,4.29,10.3.09,6.17-3.78,10.68-9.16,13.87a74.8,74.8,0,0,0-7.17,5.45Z"/><path class="cls-2" d="M521.91,41.54a47.06,47.06,0,0,1,0,4.9c-.77,6.8-2.94,13.21-9.92,15.61-7.16,2.48-12.43-1.85-17-6.87-9.58-10.47-13.86-22.36-10.29-36.6,2.24-8.94,7.25-11.87,16-8.91C514.11,14.18,521.72,25.61,521.91,41.54Z"/><path class="cls-2" d="M526.25,441.54a49.61,49.61,0,0,1,0,5.59c-.72,6.42-3.31,12-9.65,14.28-5.95,2.16-11-.94-15.13-5-11-10.65-15.88-23.32-12.4-38.67,1.89-8.36,6.46-11.08,14.94-8.78C517.49,412.66,526.05,425.15,526.25,441.54Z"/><path class="cls-2" d="M96.29,453.41c0,2.56.91,5.64-.19,7.58-2.62,4.63-5.4,10.77-9.62,12.41-3.75,1.46-10.62-1-14.21-4-12-10.1-16.44-23.32-12.65-38.94,1.89-7.73,6.66-10.62,14.55-8.54a29.78,29.78,0,0,1,22.09,26.64c.12,1.62.18,3.26.26,4.88Z"/><path class="cls-2" d="M89.36,56.57c0,2.33.82,5.11-.15,6.91-2.54,4.69-5,11-9.15,12.8-3.66,1.6-10.76-.56-14.31-3.51C53.52,62.61,48.65,49.28,52.63,33.35c1.66-6.64,5.46-9.3,12.18-8.43,11.64,1.5,22.77,12.79,24.26,24.67.29,2.31.32,4.65.48,7Z"/><path class="cls-2" d="M240.15,214.45c-.29-11,1.86-15.69,8.85-18.21,7.8-2.8,15.42-1.92,21.4,4.17,8,8.14,10.79,18.27,7.16,29-5.3,15.69-17.67,14.82-28.73,5.8A23,23,0,0,1,240.15,214.45Z"/><path class="cls-2" d="M266.9,502.6c-12.37,0-19.29-4.82-19.79-14.85-.16-3.22,1.43-8.07,3.85-9.59,7.62-4.79,15.59-9.39,25.31-8.75,7.17.47,14.41,5.27,16.56,11.94,1.73,5.36.78,10-3.93,13.75A33.43,33.43,0,0,1,266.9,502.6Z"/><path class="cls-2" d="M261.4,105.34c-13.69-1.37-18.94-4.6-20.48-15.13-.46-3.14.72-8.08,3-9.79,8.66-6.54,18.43-11.23,29.8-9.08,7.06,1.33,11.36,6.32,13.23,13,1.8,6.5-1.84,11-7.14,13.68C273.92,101,267.55,103,261.4,105.34Z"/><path class="cls-2" d="M654.21,102.65c.09,6.51-4.53,12.35-11.34,14.34-6.16,1.8-16.56-.88-18.92-6.07-3.66-8.06-6.72-16.61-2.64-25.63,3.77-8.36,9.66-10,17.45-5.26C647.36,85.28,654.06,91.69,654.21,102.65Z"/><path class="cls-2" d="M193.51,499.69c1.83-3.53,3.53-8.4,6.62-12.1,1.64-1.94,6.4-3.36,8.59-2.39,9.48,4.18,18.16,9.58,20.21,21.21,1.45,8.23-3,15.26-11.75,17.74-8.09,2.3-17.45-1.57-19.83-8.62C195.8,510.94,195,506.09,193.51,499.69Z"/><path class="cls-2" d="M206.24,126.46c-8.6-.06-13.77-3.81-16.1-11.68-3.67-12.38-1.89-22.55,5-26.91a9.67,9.67,0,0,1,5.92-1.25c8.28,1,19.52,11.94,21.31,20.35C224.67,117.65,217.29,126.54,206.24,126.46Z"/><path class="cls-2" d="M449.67,421.4c15,.35,23.72,7.2,23.29,18.25-.37,9.39-8.2,16.9-17.88,15.62-12-1.58-20.12-5.26-20-18.69C435.25,424.82,438.82,421.16,449.67,421.4Z"/><path class="cls-2" d="M642.71,515.72c-8.11-.08-13.66-3.69-15.83-10.29-4.19-12.72-2.76-23,4.26-27.8a10.32,10.32,0,0,1,6.5-1.55c8.8,1.12,19.48,12.23,21,21.31C660.26,507.7,653.22,515.83,642.71,515.72Z"/><path class="cls-2" d="M20.88,436.28c14.69,0,23.22,6.42,23.24,17.4,0,8.78-7.61,16.24-16.82,16.46C15,470.43,6.45,463,6.59,452.19,6.73,440.63,10.66,436.26,20.88,436.28Z"/><path class="cls-2" d="M15.24,40.25c12.87-.44,21.58,5.93,21.94,16,.34,9.27-7.54,17.3-17.16,17.5C8.39,74-.31,67.25,0,57,.38,45,2.07,38.68,15.24,40.25Z"/><path class="cls-2" d="M262.69,274.68c2.5-4.12,6.21-10.72,10.42-17,2.19-3.26,4.78-6.78,8.06-8.61s8.4-3.33,11.36-2,5.34,6.29,5.62,9.84c1.12,14.11-15.46,29.13-23.71,31.94C267.64,291.18,262.52,286.35,262.69,274.68Z"/><path class="cls-2" d="M480.23,391.68c.33,10.14-4.53,15.8-13.35,17-5.87.78-16.47-7.74-17.71-14.57-.66-3.65-1.62-7.67-.74-11.08,1.08-4.18,3.08-10,6.25-11.32a20,20,0,0,1,15,.75A19.1,19.1,0,0,1,480.23,391.68Z"/><path class="cls-2" d="M19.8,399.78c-.08-5.89.69-11.61,6.92-14s12.16-1.64,17.43,3.29c10.09,9.44,10.12,26.28-.21,31.61-9,4.66-21.43-1.56-23.31-11.8C20.09,405.86,20.06,402.8,19.8,399.78Z"/><path class="cls-2" d="M317.07,214.15c0-9.15,7.1-15.63,16.92-15.52,11,.13,20.69,8.91,20.7,18.79,0,7.53-9.12,14.57-18.6,14.34S317.05,222.56,317.07,214.15Z"/><path class="cls-2" d="M577.26,350.13c-.21,8.19-8.23,14.73-18,14.67-9.13-.05-18.62-9.68-18.42-18.71.2-8.75,7.32-14.9,17.09-14.73C569.19,331.55,577.52,339.63,577.26,350.13Z"/><path class="cls-2" d="M396.21,344.47c-9.63-.09-13.07-4.37-13.08-16.31,0-10.76,7.09-17.89,17.47-17.55,9.69.32,17.66,8.13,17.61,17.26C418.16,337.47,408.74,344.58,396.21,344.47Z"/><path class="cls-2" d="M567.18,20.19c.18-1.86.38-3.71.53-5.56.57-7,4.85-12.33,11-12.37,3.81,0,9.32,4.87,11.11,8.87,3,6.63,4.26,14.28,4.86,21.61.28,3.37-2,7.68-4.39,10.41C584.93,49.28,580,49,575.67,41.93c-4-6.55-6.82-13.88-10.16-20.86Z"/><path class="cls-2" d="M147,360.19c0,8-8.27,15.21-17.61,15.38-9.53.17-18.64-8.83-18.57-18.33.06-8.53,7.25-14.8,17-14.82C139.05,342.41,147,349.77,147,360.19Z"/><path class="cls-2" d="M371.9,514.05c.08-10.88,8.05-20.26,17.75-20.84,5.73-.35,9.31,2,10.35,8,.65,3.64,1.66,7.22,2.49,10.84,1.82,7.92-2.5,16-9.88,18.54C381.25,534.43,371.82,526.91,371.9,514.05Z"/><path class="cls-2" d="M396.67,116.57c.13,7-5.69,13.79-13.88,15.78-7,1.71-11.87-1.2-15.7-9.45-5.34-11.48,3.46-27.34,16-28.82,4.67-.54,8.63.77,10,5.65C394.58,105.1,395.44,110.66,396.67,116.57Z"/><path class="cls-2" d="M169,441.42c.82,6.91-3.24,11.31-8.5,14.06-2.11,1.1-6.79.24-8.57-1.5-8.89-8.68-13.13-19.58-9.95-31.8,1-4,5.6-7.95,9.55-9.95,1.87-.94,7.6,2,9,4.54,4.1,7.64,6.91,16,10.22,24.05Z"/><path class="cls-2" d="M134.1,31.22c.07-1.16.21-2.33.22-3.5.11-6.83,4.09-11.21,10.09-12.75,6.41-1.65,10,3.76,12.16,8.42,2.67,5.86,4.06,12.38,5.35,18.75s-1.87,11.22-6.87,15.08c-3.55,2.74-6.79,2.86-9.91-.45C138.39,49.59,133.37,41.64,134.1,31.22Z"/><path class="cls-2" d="M599.46,430.56c-.87,3.73-.75,7-2.26,9-6.77,9.1-11.9,10.86-18.74.9-5.39-7.86-8.24-16-7.12-25.63.78-6.8,4.49-12,10.35-12.24,3.81-.16,9.38,4.27,11.45,8.11C596.48,416.92,597.6,424.32,599.46,430.56Z"/><path class="cls-2" d="M531.77,375.71c-.07,11.05-8.29,20.06-18.18,20-7.52-.09-15.14-8.7-15.15-17.12,0-10.19,6.79-18,15.63-17.83C526,360.87,531.83,365.82,531.77,375.71Z"/><path class="cls-2" d="M397.11,245.51c-.08,10.75-8,19.39-18,19.52-7.3.11-15.53-8.94-15.5-17,0-9.82,6.86-18.47,15.08-17.78C392,231.34,396.84,234.46,397.11,245.51Z"/><path class="cls-2" d="M84.54,373.43c12,0,17.28,4.34,17.34,14.27.06,11.35-8.38,20.81-18.4,20.62-7-.13-14.57-8.49-14.59-16.2C68.86,381.4,75.53,373.43,84.54,373.43Z"/><path class="cls-2" d="M432.26,137.36c-.12,11.43-4.22,17.53-10.83,19.12-5.86,1.42-13.26-2.22-16.4-9.17a42.29,42.29,0,0,1-3.33-14c-.45-5.64,1.56-10.73,7.53-12.79s12.11-1.25,16,3.64C428.82,128.69,430.8,134.52,432.26,137.36Z"/><path class="cls-2" d="M422.19,532.9c.08-9,4.94-14.43,12.68-14.17,9.63.32,18.12,9.8,18.23,20.35.1,9.57-6,17-13.94,16.88C430.14,555.86,422.08,544.92,422.19,532.9Z"/><path class="cls-2" d="M269.33,318.08c.2-8.08,6.52-13.81,15.22-13.81,9.17,0,19.61,8,19.22,14.71-.54,9.22-10,18.19-19,17.93S269.08,328.34,269.33,318.08Z"/><path class="cls-2" d="M540.24,69.78c7.53.14,16.41,8.66,18,16.47s-2.39,16.6-9.06,19.57a14.16,14.16,0,0,1-6.07,1.41c-5.35-.21-13.64-11.07-15.23-19.49a15.34,15.34,0,0,1,8.47-16.88A20.78,20.78,0,0,1,540.24,69.78Z"/><path class="cls-2" d="M133.72,499.49c-.93,3.45-1.32,6.79-2.69,9.68-4.51,9.57-15.53,10.63-21.66,2.2a50.8,50.8,0,0,1-4.74-7.71c-4.42-9.1-1.85-17.77,6.35-22.08,5.86-3.08,16.43,1.7,20.16,9.41C132.43,493.65,132.9,496.71,133.72,499.49Z"/><path class="cls-2" d="M543.51,469.39c9.2-.13,19,9.57,20.25,17.48,1.3,8.46-3.75,17-11.64,19.24a10.59,10.59,0,0,1-5.46.28c-9.13-2.52-17-21.69-11.71-29.47C537.36,473.36,541.58,471,543.51,469.39Z"/><path class="cls-2" d="M336.21,541.33c0-10,4.74-15.39,13.31-15.26,9.13.14,16.43,8.71,16.42,19.27,0,10.26-5.43,17.16-13.53,17.23C343.72,562.65,336.19,552.77,336.21,541.33Z"/><path class="cls-2" d="M128.15,103.47c-2.2,4.21-3.58,8.88-6.54,12.11-6.15,6.72-12.49,6-18.11-1.16a43.4,43.4,0,0,1-5.2-8.23c-4-8.57-1.53-17.06,5.84-21.31,5.62-3.24,15.31,0,19.69,7.13C125.81,95.25,126.6,99.23,128.15,103.47Z"/><path class="cls-2" d="M481.32,101.77c.13,7.94-8,13.13-17.11,8.67-9.71-4.78-15.88-15.65-13.46-23.71,3.15-10.49,11.65-13.32,20.41-7C478,84.68,481,91.4,481.32,101.77Z"/><path class="cls-2" d="M71.32,512.84c.12,7.54-8,12.68-17.5,8.17-12.72-6-17.17-20.58-9.09-29.88,4-4.63,8.46-5.9,14.16-2.47C67,493.56,71,500.63,71.32,512.84Z"/><path class="cls-2" d="M487,502.16c0,6.48-7.43,11.25-16.28,7.57-14.42-6-19.34-21.21-10.12-30.9,4-4.2,8.29-4.92,13.16-2C482.24,481.85,486.91,489.2,487,502.16Z"/><path class="cls-2" d="M51.3,117.64c-.1,8.16-7.8,13.09-16.8,9.16-13.72-6-17.95-21-8.66-30.72,3.48-3.64,7.22-4.66,11.94-2.13C46.68,98.72,51.16,106,51.3,117.64Z"/><path class="cls-2" d="M574.38,281.35c-3.22,7.88-5.92,16-9.94,23.5-1.35,2.5-6.74,5.13-9,4.28-3.21-1.19-7.4-5.6-7.35-8.56.14-7.2,2-14.52,4.14-21.46,1.21-3.84,4.19-7.29,6.95-10.41,1.66-1.89,4.62-4.12,6.63-3.81s4.38,3.25,5.35,5.56c1.32,3.13,1.47,6.75,2.12,10.16Z"/><path class="cls-2" d="M435.12,261.16c-2.9,11.95-6.27,21.81-14.89,28.79-3.87,3.13-8.46,4.34-13,1.33-4.67-3.11-4-7.8-1.95-11.9,3.82-7.65,7.57-15.51,12.67-22.29,2.12-2.81,7.87-4.51,11.54-3.94C432,253.53,433.61,258.84,435.12,261.16Z"/><path class="cls-2" d="M143.38,292.77c-2.76,7.07-5.29,15.28-9.25,22.74-1.4,2.65-6.72,5.25-9.49,4.6s-6.09-5-6.85-8.29c-3.25-14.12,5.26-24.43,13-34.55,3-3.9,7.11-2,8.9,2C141.37,283,141.93,287.21,143.38,292.77Z"/><path class="cls-2" d="M157.07,206.58c.14-9.61,16.32-29.23,25.9-30.76,2.67-.42,6.59.24,8.19,2s1.59,5.79.58,8.1c-5.11,11.76-12.4,21.88-24.67,27.17C161.48,215.49,157,212.35,157.07,206.58Z"/><path class="cls-2" d="M588,194.72c.84-2,1.88-5.63,3.8-8.72,5.34-8.59,11.4-16.78,21.87-19.35,2.65-.65,6.62.51,8.7,2.32,1.36,1.18,1.34,5.47.33,7.61-5.33,11.33-12,21.72-24.54,26.33C592.25,205.09,588.06,202.13,588,194.72Z"/><path class="cls-2" d="M465.17,318.78c8.58-.27,14.44,5.34,17.61,15.28,2.33,7.27.29,14.41-5.4,18a8.73,8.73,0,0,1-5.17,1.6c-8.61-1.08-14.13-7.32-16.57-14.37-1.59-4.6.85-11.1,2.86-16.2C459.43,320.71,463.66,319.67,465.17,318.78Z"/><path class="cls-2" d="M459.22,25.23c-2.85,12.15-6,22.6-15,29.4-2.84,2.15-8.77,2.72-11.89,1.18-2.07-1-3.27-7.73-2-10.75a120.38,120.38,0,0,1,12.79-23.83C445,18.6,450.55,17,454,17.62,456.31,18,457.83,23,459.22,25.23Z"/><path class="cls-2" d="M663.12,388c-.12,1.16.12,2.53-.41,3.45-2,3.38-3.63,8.29-6.58,9.36-2.28.82-7.49-2.46-9.38-5.27-6.11-9.07-10.21-19.09-5.94-30.23,1.05-2.74,3.76-6.5,6-6.71,2.75-.25,7.28,2,8.45,4.42,3.79,7.83,6.39,16.22,9.45,24.4Z"/><path class="cls-2" d="M233.47,396.37a58.32,58.32,0,0,1-1.19,6.89c-2.13,7.31-7.49,8.75-13.16,3.66-7.59-6.81-12.14-23.31-8.41-32.8,1.13-2.89,4-6.71,6.49-7s7,2.42,8.23,5c3.74,7.62,6.31,15.81,9.34,23.77Z"/><path class="cls-2" d="M586.05,68.76c.42-7.79,2.74-14.05,9.22-18.43,5.89-4,11-2.84,14.68,3.29,6.14,10.25-1,29.05-12.65,31.89-2.28.56-6.71-1.46-7.79-3.53C587.46,78,587.11,73.22,586.05,68.76Z"/><path class="cls-2" d="M380.66,168c-.86,2.78-1.68,8.28-4.26,12.79-1.81,3.16-5.95,6.77-9.15,6.86-3.68.11-8.66-2.53-11-5.58-6.45-8.51-1.91-23.52,7.74-28.29C372.47,149.61,381.35,155.83,380.66,168Z"/><path class="cls-2" d="M55.93,353.17c-1.39,6.94-3.72,12.79-9.56,14.07-3.88.85-9.53-1.37-12.88-4.08-8.32-6.73-9.61-12.71-6.41-21,3.55-9.13,13.8-11.76,20.19-4.46C51.08,342.08,53.1,348,55.93,353.17Z"/><path class="cls-2" d="M160.79,477.57c.26-7.55,2.35-13.87,8.74-18.34,6.06-4.25,10.69-3.41,14.67,2.82,6.17,9.65-.41,28.22-11.32,32-5,1.74-8.37-.56-9.94-5C161.65,485.45,161.47,481.42,160.79,477.57Z"/><path class="cls-2" d="M589.72,468.71c2.63-5.7,4.56-11.92,8.2-16.9,1.85-2.53,7.59-4.74,10.1-3.66a15.58,15.58,0,0,1,7.9,9.62c2.05,9.19-.68,17.67-8.1,24s-13.59,4.23-15.71-5.31a69.2,69.2,0,0,1-.84-6.94Z"/><path class="cls-2" d="M425.25,476.62c-.09,6.67-4.47,10.83-11.15,10.6-11.13-.39-21.91-16.2-18.24-26.75,1.57-4.49,7.75-7.42,12.71-6C416.4,456.63,425.36,468.56,425.25,476.62Z"/><path class="cls-2" d="M153.36,78.15c2.81-5.26,4.68-11.42,8.66-15.58,6.6-6.89,14.55-4,17.29,5.27s-2.08,21.92-10.27,27C163,98.62,158.1,97,156.1,90.17c-1-3.5-1-7.3-1.47-11Z"/><path class="cls-2" d="M419.44,75.72c.12,9-6.41,13.84-14.89,11-9.39-3.12-16.36-14.85-14.61-24.57,1-5.41,7.1-8.88,13.07-7.4C410.2,56.55,419.34,68.2,419.44,75.72Z"/><path class="cls-2" d="M321.43,378.2c-4,4.59-7.22,10.3-12.12,13.48-5.49,3.56-12.39,5.9-19.21,1.74-5.55-3.39-6.87-8.17-3.39-13.68,5.32-8.41,14.12-11.28,23.08-13.06C314.89,365.67,320,371.55,321.43,378.2Z"/><path class="cls-2" d="M410,392.26c-5.51-3.06-12.08-5.63-17.07-10-2.18-1.91-2.24-7.81-1.27-11.35,1.29-4.69,6-7.06,10.72-5.59,7.28,2.26,14.63,4.85,21.25,8.56,5.48,3.06,5.29,9.13,0,12.61C420.09,388.87,415.67,390,410,392.26Z"/><path class="cls-2" d="M338.64,82.42c-7.82-.1-14.06.45-15.47-7C322,69,327.28,62,334.18,60.43c4.76-1.11,9.65-2.81,14.38-2.54a16.42,16.42,0,0,1,10.55,5c1.31,1.5-.22,6.59-1.81,9.27C352.7,79.93,345.31,82.89,338.64,82.42Z"/><path class="cls-2" d="M342.85,481.57c-5.7-.27-12.42.83-13.41-7.44-.9-7.51,3.81-13.12,11.74-14.76,4.33-.9,8.8-2.63,13-2.16,4,.44,8.61,2.48,11.15,5.39,1.24,1.43-1,6.8-2.72,9.73C358.25,479.67,351.1,482,342.85,481.57Z"/><path class="cls-2" d="M518.21,272.72c-1.53,14.68-8.35,24.95-18.49,33-1.88,1.5-6.71,2.07-8,.82-1.76-1.68-2.78-6.19-1.76-8.39,4.85-10.47,5-23.9,17.39-29.86,2.3-1.11,5.64-2.29,7.53-1.4S517.47,271.29,518.21,272.72Z"/><path class="cls-2" d="M88.12,286c-1.33,14.64-8.2,24.73-17.45,33.23-1.87,1.72-6.35,2.09-8.83,1.09-1.4-.57-2.41-5.73-1.46-7.88,4.68-10.6,5-23.76,16.6-30.48,2.25-1.29,5.75-2.88,7.46-2C86.53,281.09,87.35,284.64,88.12,286Z"/><path class="cls-2" d="M524.71,220c-.16-8.43,7.18-18.06,13.89-18.25s13.64,9,13.6,17.74c-.05,9-6.18,14.71-15.85,14.74C529.07,234.21,524.87,229.07,524.71,220Z"/><path class="cls-2" d="M94.31,232.66c-.26-8.3,7.89-18.85,14.5-18.78,5.93.07,12.72,9.18,12.8,17.17.09,8.94-6.59,15.36-16.18,15.54C98.62,246.71,94.58,241.66,94.31,232.66Z"/><path class="cls-2" d="M522.65,192.35c-4.59-.57-7.22-4-7.46-9.3-.51-11,17.68-23.56,27.88-19.34,4,1.66,5.87,4.28,5,8.73C546.59,179.78,531,192.63,522.65,192.35Z"/><path class="cls-2" d="M301.53,537.39c-6.83,0-10.19-3-10.35-9.49-.29-12,6.51-19.26,18.05-19.35,6.23-.05,10.35,3.72,10.53,9.64C320.06,528.35,311.53,537.33,301.53,537.39Z"/><path class="cls-2" d="M93.53,205.51c-5,.1-8.66-4.12-8.57-9.92.15-10.14,16.63-22.36,26.42-19.72,4.63,1.25,6.69,3.91,6,8.71C116.31,191.58,100.65,205.37,93.53,205.51Z"/><path class="cls-2" d="M206.69,221.71c6.75.21,13.2,7.76,12.87,15.06-.32,7-9.1,15.23-16,15.1-6.17-.11-13-8.84-12.63-16.18C191.23,228.51,199.17,221.48,206.69,221.71Z"/><path class="cls-2" d="M637.35,213.11c7,.09,12.87,7,12.7,15-.14,6.91-8.36,14.93-15.21,14.85-6.62-.07-13-7.84-12.91-15.81C622,219.33,628.93,213,637.35,213.11Z"/><path class="cls-2" d="M488,149c-3.26,5.45-5.1,10-8.2,13.41-5.53,6.08-11.21,4.74-14.5-2.77-2.61-6-7.5-10.91-4.48-18.72,3.78-9.77,9.18-12.05,16.85-5C481.48,139.41,484.22,144.13,488,149Z"/><path class="cls-2" d="M302.51,135.75c-7.15.21-10.44-2.49-10.75-8.82-.58-11.78,6.12-19.31,17.63-19.81,6.2-.27,10.66,3.47,11,9.21C320.89,126.32,312.5,135.46,302.51,135.75Z"/><path class="cls-2" d="M57.3,165.89c-2.11,3.78-3.67,8-6.43,11.25-6.12,7.1-10.76,5.75-15.22-2.5-3.32-6.12-6.54-11.52-3.62-18.86,3.47-8.7,8.35-10.35,15.85-4.85C52.84,154.57,56.6,158.72,57.3,165.89Z"/><path class="cls-2" d="M284.87,175.38c.24-6.92,5.64-14.55,12.17-16.55,5.87-1.79,11.08-.34,15.26,4.33,3.75,4.19,4.18,9-.2,12.29A68.56,68.56,0,0,1,294.47,185C289,186.92,284.63,181.94,284.87,175.38Z"/><path class="cls-2" d="M516.64,123.23c7.89.11,15.57,8.15,15.36,16.06a12.68,12.68,0,0,1-13,12c-7.52-.28-14.35-9.11-14.06-18.17C505.17,126.34,509,123.12,516.64,123.23Z"/><path class="cls-2" d="M522.29,522c8.34,0,16.37,8,16.12,16.19-.18,6.11-6.24,11.82-12.55,11.8-7.56,0-14.84-8.66-14.82-17.59C511.06,525.57,515,522,522.29,522Z"/><path class="cls-2" d="M86.11,137.06c7.67-.13,15.17,7.2,15.45,15.09.22,6.32-6.56,12.8-13.27,12.71S74.57,156.27,74.38,148C74.24,141.3,78.65,137.19,86.11,137.06Z"/><path class="cls-2" d="M304.54,456.49c-7.59-.23-11.75-2.34-13.17-7.88-1.18-4.57,3.51-11.76,8.66-13.9,7.07-2.92,18.34,1.52,21.59,8.5,1.86,4,.37,7.14-3.23,8.66C313.3,454,307.89,455.4,304.54,456.49Z"/><path class="cls-2" d="M200.37,417.47c-.06,8.24-4.89,15.06-10.59,14.94-5.94-.13-10.85-7.58-10.43-15.85.54-10.91,4-15.89,10.9-15.77C196.34,400.91,200.44,407.67,200.37,417.47Z"/><path class="cls-2" d="M193.7,18.54c0,9.08-5.08,16.37-11.14,15.87-6.53-.54-11.09-8.89-9.66-17.66,0-.23.13-.45.17-.68,1.7-9.87,4.94-13.77,11-13.3C189.85,3.2,193.65,9.46,193.7,18.54Z"/><path class="cls-2" d="M630.35,408.44c-.15,8.25-4.88,15.12-10.45,15.21s-10.87-7.88-10.52-16c0-.23,0-.46,0-.69.77-10.53,4.24-15.43,10.75-15.18C626.28,392.06,630.53,399,630.35,408.44Z"/><path class="cls-2" d="M295.05,58.34c-2.8-2.05-7.18-3.74-8.75-6.86C285,49,286.38,44.33,288,41.37c2.92-5.48,8.79-8.12,14.25-6.18,5.06,1.79,9.48,6.07,13.29,10.09.78.82-1.63,6.74-3.84,7.91C307.05,55.62,301.6,56.44,295.05,58.34Z"/><path class="cls-2" d="M254,136.59c.15,11-9.57,23.19-18.18,24.34-5.33.72-8.17-3.45-6.72-7.29a96.21,96.21,0,0,1,11.51-21.21c1.3-1.85,6.63-2.06,9.55-1.16C252.2,131.9,253.34,135.64,254,136.59Z"/><path class="cls-2" d="M444.53,198.46c.3-9.87,4.58-16.15,10.9-16,7.15.18,12.26,6,11.94,13.57-.36,8.47-5.9,14.88-12.76,14.76C448.07,210.69,444.31,206.08,444.53,198.46Z"/><path class="cls-2" d="M271.54,419.5c.06,7.46-4.52,12.78-10.94,12.74-7.14-.05-12.51-4.9-12.55-11.34-.06-7.78,6.27-15.7,12.74-16C266.93,404.7,271.47,410.85,271.54,419.5Z"/><path class="cls-2" d="M474.14,247.07c1.23-8.32,7.34-15.47,15.8-20.44,5.5-3.23,10.51.6,9.5,7-1.7,10.71-8.89,17.74-17.55,23.1C477.57,259.43,473.71,255.34,474.14,247.07Z"/><path class="cls-2" d="M372.07,427.27c-3.56-.92-7.61-1.07-10.53-3-2.46-1.61-5.29-5.5-4.93-7.93a14.1,14.1,0,0,1,6.2-8.86c2.92-1.73,7.2-1.44,10.9-1.52,6.89-.13,11.73,4.15,11.86,10.05.13,6.24-4,10.12-11.24,10.45-.7,0-1.4.08-2.09.13Z"/><path class="cls-2" d="M44.68,262.6c1.3-8.74,7.45-16.25,15.86-21.73,5.14-3.35,9.88.14,9.21,6.41-1.18,11.22-8.83,18.3-17.29,24.24C48.59,274.24,44.5,270.19,44.68,262.6Z"/><path class="cls-2" d="M369,5c3.46,2.13,8,3.54,10.05,6.61,1.63,2.41,1.27,7.24.05,10.3-2.51,6.29-9.17,5.46-14,4.86a22,22,0,0,1-12.86-6.49c-3.4-3.82,1-11.38,6.79-12.84,2.91-.73,6-.74,9-1.08Z"/><path class="cls-2" d="M16.17,215.06c.23-11.73,4.93-17.42,12.89-16.12,6.45,1.06,10.46,7.62,9.08,14.85-1.66,8.71-8,14.59-14.33,13S15.72,220.52,16.17,215.06Z"/><path class="cls-2" d="M265.22,21.09c0,7.8-4.13,12.42-11,12.4S241.75,28.78,241.6,23c-.19-7.57,6.86-16.18,13.38-16.33C261.73,6.47,265.26,11.46,265.22,21.09Z"/><path class="cls-2" d="M575.51,144.85c0,6.35-5.93,11.77-13.13,12-6.24.18-11.94-6.53-11.9-14A11.13,11.13,0,0,1,561.25,132C568.18,131.89,575.51,138.48,575.51,144.85Z"/><path class="cls-2" d="M567.34,531.06c6.8-.15,14,5.91,14.24,11.93.24,6.89-5.53,12.56-13,12.8-5.87.19-11.73-6.23-12.08-13.23A11.27,11.27,0,0,1,567.34,531.06Z"/><path class="cls-2" d="M584.07,150.75c.78-7.54,5.64-13.87,12.59-17.84,2.21-1.27,7.85.71,10.06,3,1.89,2,2.69,7.76,1.19,9.63a57.11,57.11,0,0,1-14.37,12.63C588.53,161.26,584,157.73,584.07,150.75Z"/><path class="cls-2" d="M151.26,161.32c4.43-6,8.39-12.49,13.6-17.74,1.47-1.49,7.56-.5,9.74,1.4s3.92,7.82,2.65,9.44A69.69,69.69,0,0,1,161.7,168.9c-4.12,2.76-8.81-1.18-8.75-6.33Z"/><path class="cls-2" d="M345.71,365.1c-6.66.21-8.33-3.65-8.25-8.57.14-8,5.34-13.23,11.32-17.42,3.74-2.6,9.2-.11,10.92,4.19C363.51,352.83,355.23,365.14,345.71,365.1Z"/><path class="cls-2" d="M624.85,29.65c-6.65.2-8.33-3.66-8.25-8.57.14-8,5.35-13.23,11.33-17.42,3.73-2.61,9.19-.12,10.92,4.19C642.65,17.38,634.37,29.69,624.85,29.65Z"/><path class="cls-2" d="M600.87,497.65c1.47,1,5.19,2.35,6.68,5,1.3,2.27,1.25,6.87-.27,8.87a57.43,57.43,0,0,1-12.57,11.88c-1.93,1.36-6.38,1.37-8.2,0s-2.69-5.32-2.36-7.94C585.21,507.2,593.39,497.91,600.87,497.65Z"/><path class="cls-2" d="M451.94,303.05c-.88-1.17-3.78-3.28-3.94-5.58-.56-7.82,9.43-19.64,16.07-20,4.66-.24,9.67,4.8,10,10C474.41,294.57,464,302.65,451.94,303.05Z"/><path class="cls-2" d="M144.35,156.07c0,6.89-5.66,12.15-13.31,12.29-5.81.11-10.92-5.77-11.1-12.76a10.87,10.87,0,0,1,10.65-11.4C137.71,144,144.32,149.71,144.35,156.07Z"/><path class="cls-2" d="M22.15,318.34c-.66-1.6-3.21-4.81-2.43-6.46a84.32,84.32,0,0,1,10.37-17c2.61-3.27,7.07-3.85,10.65-.58S46.15,302,44,307C41.53,312.6,30.51,319,22.15,318.34Z"/><path class="cls-2" d="M649.55,274.11c-1.3,2-3.31,6.54-6.72,9.53-1.55,1.36-7.51.66-8.56-1-2.42-3.76-4.37-8.74-4.13-13.1.46-8.2,5.89-13.65,10.92-13C645.36,257.06,649.55,264.36,649.55,274.11Z"/><path class="cls-2" d="M218.87,280.07c0,7.43-4.65,13.46-10.33,13.37-6.09-.09-10-5.68-9.53-13.64.48-8.29,5.51-15,11.07-14.7C214.74,265.33,218.87,272.35,218.87,280.07Z"/><path class="cls-2" d="M187.59,336.77c.12-7.46,5.73-14,12-13.9,4.69,0,9,6.13,8.77,12.45-.2,5.95-6.39,12.45-12,12.56C190.93,348,187.48,343.62,187.59,336.77Z"/><path class="cls-2" d="M617.87,327.4c.4-7.29,5.84-13.21,12-13.1,4.85.07,8.87,5.91,8.62,12.5-.23,6-6.76,12.54-12.24,12.28C621.08,338.84,617.51,333.89,617.87,327.4Z"/><path class="cls-2" d="M350.82,287.94c-1.82,3.52-2.87,8-5.69,10.26-2.39,1.92-7.09,2.27-10.25,1.41-1.78-.48-3-4.73-3.55-7.46-.44-2.37.2-5.08.87-7.5,1.44-5.21,3.93-10,10.33-9.13C349.11,276.46,349.69,281.87,350.82,287.94Z"/><path class="cls-2" d="M547.17,20.61c-6.76.06-10.42-3.44-10.62-10.14C536.36,4,539.57,0,545.07,0c6.92,0,12.24,4.61,12.24,10.73S553.5,20.56,547.17,20.61Z"/><path class="cls-2" d="M252,371.54c-8.12.56-9.81-4.08-10.33-9.17-.59-5.79,4.93-11.54,10.58-11.7,5.85-.16,9.72,4.19,9.86,11.09C262.18,368.27,258.44,371.44,252,371.54Z"/><path class="cls-2" d="M540.44,409.33c.24-6.74,3.06-9.45,9.45-9.09s11.54,5.43,11.21,11a9.89,9.89,0,0,1-10.66,9.65C543.73,420.59,540.18,416.48,540.44,409.33Z"/><path class="cls-2" d="M163.66,253.24c-.17,8.31-5.42,15.16-11.58,14.76-6-.39-6.71-4.82-6.66-9.52.08-7.5,6.37-14.83,12.3-14.51C161.94,244.2,163.79,247.08,163.66,253.24Z"/><path class="cls-2" d="M594.21,242.86c-.23,8.74-5.62,15.79-11.32,15.08s-7.14-5.2-7-10.28c.23-7.13,6.42-14.11,12.25-13.67C594.51,234.47,594,239.4,594.21,242.86Z"/><path class="cls-2" d="M103.08,24.45c0-5.4,1.31-9.89,7.85-10.23,7.08-.36,12.5,4,12.66,10.12.15,5.72-4.08,10.08-10,10.32C107,34.92,103.17,31.17,103.08,24.45Z"/><path class="cls-2" d="M119.4,411.27c6.6.16,11.82,5,11.54,10.61a10.41,10.41,0,0,1-10.69,9.85c-6.3-.06-10-4.12-9.88-10.88C110.48,413.84,113.05,411.12,119.4,411.27Z"/><path class="cls-2" d="M647.52,43.8c.78-4.18-.33-10.58,7-11.68,4.32-.65,8.15,5.42,8.1,11.94,0,5.72-4.47,11.8-8.68,11.95S647.34,51.92,647.52,43.8Z"/><path class="cls-2" d="M201.65,542.61c-.13,7.58-2.94,11.54-8.18,11.55s-7.75-3.91-7.73-11.77c0-5.34,1.91-9.29,7.67-9.69C198.43,532.35,201.76,536.69,201.65,542.61Z"/><path class="cls-2" d="M221.66,451.05c.74-4.1-.24-10.46,7.09-11.45,4.32-.59,8.18,5.54,8.17,12,0,5.67-4.59,11.9-8.71,11.87S221.6,458.91,221.66,451.05Z"/><path class="cls-2" d="M230.43,53.62c-.25,1-.13,3.39-1.24,4.5-2.58,2.58-5.76,4.56-8.7,6.78-1.76-3-3.69-5.88-5.19-9-.53-1.12-.05-2.75.06-4.13.39-5,.83-11,7.28-10.59C228.68,41.6,230.07,47.37,230.43,53.62Z"/><path class="cls-2" d="M649.84,445c1.62-9.76,4.34-14.81,9-14.13,6.5.95,7.44,6.39,7.86,11.59.44,5.53-5.67,13.76-9,12S652.4,448.29,649.84,445Z"/><path class="cls-2" d="M592.48,299.37c.1-6.78,4-12.12,9.16-11.69,6.81.59,6.45,6.46,7,11.07.53,4.89-5.34,10.69-10,10.62C594.52,309.31,592.39,305.82,592.48,299.37Z"/><path class="cls-2" d="M300.07,19.44c.1-6.78,4-12.13,9.17-11.69,6.81.59,6.45,6.46,6.95,11.07.53,4.88-5.33,10.69-10,10.62C302.11,29.38,300,25.88,300.07,19.44Z"/><path class="cls-2" d="M54.23,558.73C52.61,557,48.64,554,46.53,550c-1-1.82,1.12-7.45,2.95-8.09,4.22-1.47,9.52-2.21,13.7-1,7.87,2.36,11.9,8.91,10.13,13.66C71.79,558.62,63.71,561,54.23,558.73Z"/><path class="cls-2" d="M130.62,531.21c7,2.09,11.48,8.77,9.93,14.78-1.21,4.7-7.83,7.25-14.17,5.46-5.77-1.62-10.61-9.49-9.09-14.77C118.75,531.67,124.39,529.35,130.62,531.21Z"/><path class="cls-2" d="M163.8,513.07c6.57,1.68,10.85,6.76,9.23,11.64-2.16,6.48-7.79,4.76-12.39,4.18-4.87-.63-9.14-7.68-8-12.22C153.66,512.73,157.56,511.48,163.8,513.07Z"/><path class="cls-2" d="M407.88,204.63c-.28-7,1.31-11.08,7.29-11.52,5.08-.36,8.58,3.6,8.7,9.42.18,8.09-2.47,12-8.12,12C410.45,214.44,408,210.82,407.88,204.63Z"/><path class="cls-2" d="M19.27,15.51C19,8.47,20.58,4.42,26.56,4c5.08-.36,8.58,3.6,8.71,9.42.18,8.09-2.48,12-8.12,12C21.84,25.32,19.38,21.7,19.27,15.51Z"/><path class="cls-2" d="M178,307.59c-.07,5.8-5.16,11.59-9.91,11.23-6.35-.48-6-5.78-6.2-10-.37-6.45,4.36-12,9.61-11.46C178,298,177.41,303.5,178,307.59Z"/><path class="cls-2" d="M244.76,314.63c-3.33,3.41-5.56,7.51-8.38,8-2.11.35-6.78-3.76-7.14-6.33-.67-4.72.76-9.83,1.92-14.63.18-.74,4.78-1.58,5.29-.88C239.31,304.7,241.55,309.09,244.76,314.63Z"/><path class="cls-2" d="M631.26,546.49c-3.33,3.41-5.56,7.52-8.38,8-2.11.34-6.77-3.76-7.14-6.34-.67-4.72.76-9.83,1.92-14.63.18-.74,4.79-1.58,5.29-.88C625.82,536.56,628.06,541,631.26,546.49Z"/><path class="cls-2" d="M173.91,375.73c-1.64,6.34-3.49,10.6-8.83,10.66-5.86.06-6.74-4.9-6.55-9.55.2-4.88,2-10.44,7.22-10.07C168.67,367,171.2,372.57,173.91,375.73Z"/><path class="cls-2" d="M215.82,204c-1-1.64-2.85-3.47-2.48-4.33a196.1,196.1,0,0,1,9.29-19c.61-1.08,3.64-.8,5.56-1.14.16,1.7,1,3.74.38,5-2.78,5.77-5.93,11.36-9.11,16.93C219,202.44,217.63,202.85,215.82,204Z"/><path class="cls-2" d="M647.53,552.51c-1-1.65-2.86-3.47-2.48-4.33a192.64,192.64,0,0,1,9.28-19c.62-1.09,3.65-.8,5.56-1.15.17,1.71,1,3.74.38,5.06-2.78,5.76-5.93,11.36-9.11,16.92C650.66,550.9,649.33,551.31,647.53,552.51Z"/><path class="cls-2" d="M22,541.2c-1-1.65-2.86-3.47-2.49-4.33a195,195,0,0,1,9.29-19c.62-1.09,3.64-.8,5.56-1.15.17,1.71,1,3.74.38,5.06-2.78,5.76-5.93,11.36-9.11,16.92C25.17,539.59,23.84,540,22,541.2Z"/><path class="cls-2" d="M410.14,30.82c-1-1.65-2.85-3.47-2.48-4.34a196.1,196.1,0,0,1,9.29-19c.61-1.08,3.64-.79,5.56-1.14.16,1.7,1,3.74.38,5.05-2.78,5.77-5.93,11.36-9.11,16.93C413.28,29.21,412,29.62,410.14,30.82Z"/><path class="cls-2" d="M603.9,366.61c-1.57,6.27-3.78,10.48-8.94,10.38s-6.47-4.67-6.29-9.26c.2-5.22,2-10.85,7.54-10.59C598.92,357.27,601.35,363.27,603.9,366.61Z"/><path class="cls-2" d="M661.51,174.88c-4.06,6.31-8.06,12.65-12.4,18.76-.2.29-4.76-1.29-5-2.5-1-4.57,6.61-18.28,10.92-20,1.42-.56,3.51.52,5.29.85C660.7,173,661.1,173.92,661.51,174.88Z"/></pattern></defs><title>Asset 1</title><g id="Layer_2" data-name="Layer 2"><g id="Layer_1-2" data-name="Layer 1"><rect class="cls-3" width="382.24" height="678.94"/><rect class="cls-4" width="382.24" height="678.94"/></g></g></svg>