<svg xmlns="http://www.w3.org/2000/svg" viewBox="0 0 81.21 81.21"><defs><style>.cls-1{fill:#f6c96c;}.cls-2{fill:#f6f7f8;}</style></defs><title>Asset 3</title><g id="Layer_2" data-name="Layer 2"><g id="Layer_1-2" data-name="Layer 1"><path class="cls-1" d="M81.21,40.6c0,3.37-6.36,5.86-7.19,9s3.38,8.54,1.75,11.35-8.39,1.84-10.71,4.15-1.3,9.06-4.15,10.71S52.77,73.16,49.56,74s-5.59,7.19-9,7.19-5.85-6.36-9-7.19S23.11,77.4,20.3,75.77s-1.84-8.39-4.15-10.71-9.06-1.3-10.71-4.15S8,52.77,7.19,49.56,0,44,0,40.6s6.36-5.85,7.19-9S3.81,23.11,5.44,20.3s8.39-1.84,10.71-4.15S17.44,7.09,20.3,5.44,28.43,8,31.65,7.19,37.24,0,40.6,0s5.86,6.36,9,7.19S58.1,3.81,60.91,5.44s1.84,8.39,4.15,10.71,9.06,1.29,10.71,4.15S73.16,28.43,74,31.65,81.21,37.24,81.21,40.6Z"/><path class="cls-2" d="M52.26,43.22c1.71-1.68,3.6-2.16,5.69-1.13a4.31,4.31,0,0,1,2.53,4.42,4.58,4.58,0,0,1-3.73,4.32A4.54,4.54,0,0,1,55,56.52a4.29,4.29,0,0,1-5,0,4.58,4.58,0,0,1-2-5.1L30.1,42A4.68,4.68,0,0,1,22,38.5c.19-2,1.42-3.41,3.72-4.15a10.09,10.09,0,0,1-.3-1.53,4.63,4.63,0,1,1,9.18.52.45.45,0,0,0,.29.58Q43.45,38.47,52,43A1.16,1.16,0,0,1,52.26,43.22Zm-8.91-2.38,0-.12a1.28,1.28,0,0,1-.33-.11q-5.1-2.69-10.18-5.4a1.68,1.68,0,0,1-.52-.4,1.1,1.1,0,0,1,0-1.24,2.59,2.59,0,0,0-3-3.55,2.59,2.59,0,0,0-1.61,3.73,2.73,2.73,0,0,0,1,1,1,1,0,0,1,.39,1.54,1.09,1.09,0,0,1-1.46.24,2.69,2.69,0,0,0-3,.65,2.59,2.59,0,1,0,4.16,3,1.08,1.08,0,0,1,1.69-.44l5.69,3a.64.64,0,0,0,.54.05l6.35-2ZM39.11,44.3l0,.13a1.7,1.7,0,0,1,.32.1l10.18,5.4a1.07,1.07,0,0,1,.56,1.59,2.69,2.69,0,0,0-.21,1.58,2.58,2.58,0,0,0,2.28,2.11,2.62,2.62,0,0,0,2.7-1.69,2.59,2.59,0,0,0-1.14-3.12,1.07,1.07,0,0,1-.62-1,1,1,0,0,1,1.57-.84,2.61,2.61,0,0,0,2.34,0,2.55,2.55,0,0,0,1.38-2.62,2.61,2.61,0,0,0-2-2.17,2.67,2.67,0,0,0-2.79,1.16,1.08,1.08,0,0,1-1.68.47l-5.69-3a.62.62,0,0,0-.56-.06l-6,1.84Z"/></g></g></svg>