<svg xmlns="http://www.w3.org/2000/svg" viewBox="0 0 110.36 110.36"><defs><style>.cls-1{fill:#f6f7f8;}.cls-2{fill:#3d3f3f;opacity:0.3;}</style></defs><title>Asset 6</title><g id="Layer_2" data-name="Layer 2"><g id="Layer_1-2" data-name="Layer 1"><circle class="cls-1" cx="55.18" cy="55.18" r="55.18"/><circle class="cls-2" cx="55.18" cy="55.18" r="55.18"/><path class="cls-1" d="M73.8,67.75a23,23,0,0,1-1.38,7.83,18.35,18.35,0,0,1-7.88,9.57,24.82,24.82,0,0,1-8.77,2.92,18.61,18.61,0,0,1-2.6.18,20.57,20.57,0,0,1-6.56-1.1,15.77,15.77,0,0,1-8.24-6.87,24.33,24.33,0,0,1-3.45-11.07q-.09-.93-.09-1.86a22.73,22.73,0,0,1,2-9.53,15.92,15.92,0,0,1,8-7.87,27,27,0,0,1,9.79-1.69c.65,0,1.3,0,1.94.05A18.09,18.09,0,0,1,67.55,52.2a20.19,20.19,0,0,1,5.81,10.94A24.82,24.82,0,0,1,73.8,67.75Z"/><path class="cls-1" d="M77.81,40.23a7.25,7.25,0,0,1-.42,2.47,5.87,5.87,0,0,1-2.48,3,7.84,7.84,0,0,1-2.75.92,5.79,5.79,0,0,1-.83.06,6.4,6.4,0,0,1-2-.35,5,5,0,0,1-2.6-2.16,7.65,7.65,0,0,1-1.08-3.48,5.83,5.83,0,0,1,0-.59,7.19,7.19,0,0,1,.64-3,5,5,0,0,1,2.52-2.48,8.52,8.52,0,0,1,3.07-.54l.62,0a5.76,5.76,0,0,1,3.44,1.23,6.32,6.32,0,0,1,1.82,3.43A7.18,7.18,0,0,1,77.81,40.23Z"/><path class="cls-1" d="M60.44,36A7.45,7.45,0,0,1,60,38.44a5.81,5.81,0,0,1-2.48,3,7.91,7.91,0,0,1-2.75.92,5.69,5.69,0,0,1-.83.06,6.46,6.46,0,0,1-2.06-.35,5,5,0,0,1-2.59-2.16,7.78,7.78,0,0,1-1.09-3.48,5.83,5.83,0,0,1,0-.59,7.09,7.09,0,0,1,.65-3,5,5,0,0,1,2.51-2.47,8.38,8.38,0,0,1,3.09-.54l.61,0a5.58,5.58,0,0,1,3.43,1.23,6.27,6.27,0,0,1,1.83,3.43A7.91,7.91,0,0,1,60.44,36Z"/><path class="cls-1" d="M44.14,40.35a7.24,7.24,0,0,1-.43,2.46,5.79,5.79,0,0,1-2.48,3,7.79,7.79,0,0,1-2.75.93c-.27,0-.55,0-.83,0a6.38,6.38,0,0,1-2-.34A5,5,0,0,1,33,44.28a7.48,7.48,0,0,1-1.07-3.48,5.63,5.63,0,0,1,0-.58,7.12,7.12,0,0,1,.64-3,5,5,0,0,1,2.52-2.47,8.44,8.44,0,0,1,3.07-.53h.61a5.76,5.76,0,0,1,3.44,1.23A6.32,6.32,0,0,1,44,38.9,7,7,0,0,1,44.14,40.35Z"/></g></g></svg>