<svg xmlns="http://www.w3.org/2000/svg" viewBox="0 0 111.08 111.08"><defs><style>.cls-1{fill:#f6f7f8;}.cls-2{fill:#3d3f3f;opacity:0.3;}</style></defs><title>Asset 7</title><g id="Layer_2" data-name="Layer 2"><g id="Layer_1-2" data-name="Layer 1"><circle class="cls-1" cx="55.54" cy="55.54" r="55.54"/><circle class="cls-2" cx="55.54" cy="55.54" r="55.54"/><path class="cls-1" d="M90.37,86.5a7.22,7.22,0,0,1-6.68,4.06c-2,0-4,0-5.94,0h-50a7.4,7.4,0,0,1-6-11.88A41.67,41.67,0,0,1,38.56,64.75c1.39-.62,2.84-1.11,4.26-1.66l.63-.23a19.43,19.43,0,0,1-4.06-4.2,19.22,19.22,0,0,1-3.71-11.12,96.16,96.16,0,0,1,.16-10,18.94,18.94,0,0,1,7.8-13.67A19.46,19.46,0,0,1,58,19.92,20,20,0,0,1,74.86,34a21,21,0,0,1,.87,6.35c0,2.79.07,5.58-.12,8.36a19.31,19.31,0,0,1-6.32,13c-.42.4-.87.77-1.35,1.19l.9.32A41.43,41.43,0,0,1,89.79,79,6.81,6.81,0,0,1,90.37,86.5Z"/></g></g></svg>