<svg xmlns="http://www.w3.org/2000/svg" xmlns:xlink="http://www.w3.org/1999/xlink" viewBox="0 0 645.16 678.94"><defs><style>.cls-1{fill:none;}.cls-2{fill:#f6c96c;}.cls-3{isolation:isolate;}.cls-4{fill:#f4826c;}.cls-5{fill:url(#New_Pattern);}.cls-6{clip-path:url(#clip-path);}.cls-7{opacity:0.5;mix-blend-mode:darken;}.cls-10,.cls-8{fill:#3d3f3f;}.cls-9{fill:#30bdbf;}.cls-10,.cls-11{font-size:106.11px;font-family:Justtellmewhat, Just tell me what;letter-spacing:-0.03em;}.cls-11,.cls-12{fill:#f6f7f8;}</style><pattern id="New_Pattern" data-name="New Pattern" width="668.56" height="564.13" patternTransform="translate(-503.33 -439.7)" patternUnits="userSpaceOnUse" viewBox="0 0 668.56 564.13"><rect class="cls-1" width="668.56" height="564.13"/><path class="cls-2" d="M239,560.43c-4.07-3.7-4.41-8-1.87-12.63s4.5-10.09,8.16-13.71c2.62-2.57,8.2-4.4,11.42-3.36,2.38.77,4.25,6.68,4.3,10.32.09,6.19-3.79,10.72-9.19,13.92a74.77,74.77,0,0,0-7.19,5.46Z"/><path class="cls-2" d="M523.36,41.66a44.64,44.64,0,0,1,0,4.91c-.77,6.82-2.94,13.24-9.94,15.66-7.18,2.48-12.47-1.86-17.07-6.89-9.61-10.5-13.9-22.43-10.32-36.7,2.25-9,7.27-11.91,16.09-8.94C515.53,14.22,523.17,25.69,523.36,41.66Z"/><path class="cls-2" d="M527.71,442.76a50,50,0,0,1,0,5.61c-.72,6.44-3.33,12-9.68,14.32-6,2.16-11-.95-15.17-5-11-10.68-15.93-23.39-12.44-38.78,1.9-8.39,6.48-11.12,15-8.8C518.92,413.81,527.51,426.33,527.71,442.76Z"/><path class="cls-2" d="M96.55,454.66c0,2.57.92,5.66-.18,7.61-2.63,4.64-5.42,10.8-9.66,12.45-3.75,1.45-10.64-1-14.24-4.06-12-10.13-16.49-23.38-12.68-39,1.89-7.76,6.67-10.66,14.58-8.57a29.88,29.88,0,0,1,22.16,26.71c.12,1.63.18,3.27.26,4.9Z"/><path class="cls-2" d="M89.61,56.73c0,2.34.82,5.12-.16,6.93-2.54,4.7-5,11-9.17,12.83C76.61,78.1,69.49,75.93,65.93,73,53.67,62.78,48.78,49.42,52.77,33.45,54.44,26.78,58.25,24.12,65,25c11.67,1.5,22.83,12.82,24.33,24.74.29,2.31.32,4.66.48,7Z"/><path class="cls-2" d="M240.81,215c-.28-11.07,1.87-15.73,8.88-18.25,7.82-2.82,15.47-1.94,21.46,4.18,8,8.16,10.82,18.32,7.18,29.11C273,245.81,260.61,245,249.52,235.9A23.11,23.11,0,0,1,240.81,215Z"/><path class="cls-2" d="M267.64,504c-12.4,0-19.34-4.83-19.85-14.89-.16-3.22,1.44-8.09,3.87-9.61,7.63-4.8,15.62-9.43,25.38-8.78,7.19.48,14.44,5.29,16.6,12,1.74,5.37.79,10-3.93,13.78A33.58,33.58,0,0,1,267.64,504Z"/><path class="cls-2" d="M262.12,105.63c-13.73-1.37-19-4.61-20.53-15.17-.46-3.15.72-8.11,3-9.81,8.69-6.57,18.48-11.27,29.89-9.12,7.08,1.34,11.39,6.34,13.26,13.07,1.81,6.52-1.84,11.06-7.15,13.72C274.68,101.27,268.29,103.23,262.12,105.63Z"/><path class="cls-2" d="M656,102.93c.1,6.53-4.54,12.39-11.37,14.38-6.18,1.8-16.61-.88-19-6.08C622,103.14,619,94.57,623,85.52c3.79-8.38,9.69-10,17.51-5.26C649.15,85.51,655.87,91.94,656,102.93Z"/><path class="cls-2" d="M194.05,501.07c1.84-3.53,3.53-8.42,6.64-12.12,1.64-2,6.41-3.38,8.6-2.41,9.52,4.2,18.22,9.61,20.28,21.28,1.45,8.25-3,15.3-11.79,17.78-8.11,2.3-17.5-1.57-19.88-8.64C196.34,512.36,195.57,507.49,194.05,501.07Z"/><path class="cls-2" d="M206.81,126.81c-8.62-.06-13.81-3.82-16.14-11.71-3.68-12.42-1.9-22.61,5-27a9.68,9.68,0,0,1,5.94-1.26c8.3,1,19.57,12,21.36,20.41C225.29,118,217.89,126.9,206.81,126.81Z"/><path class="cls-2" d="M450.92,422.57c15,.34,23.79,7.22,23.35,18.3-.37,9.42-8.22,16.95-17.93,15.67-12.06-1.59-20.17-5.28-20-18.75C436.46,426,440,422.32,450.92,422.57Z"/><path class="cls-2" d="M644.49,517.15c-8.14-.09-13.7-3.7-15.88-10.32-4.19-12.76-2.76-23.06,4.28-27.87a10.26,10.26,0,0,1,6.52-1.56c8.82,1.12,19.53,12.26,21,21.37C662.09,509.11,655,517.26,644.49,517.15Z"/><path class="cls-2" d="M20.94,437.49c14.73,0,23.28,6.44,23.3,17.45,0,8.8-7.63,16.28-16.86,16.5-12.36.29-20.91-7.12-20.77-18C6.75,441.85,10.69,437.47,20.94,437.49Z"/><path class="cls-2" d="M15.29,40.36c12.9-.44,21.63,6,22,16.09.33,9.3-7.56,17.35-17.21,17.55C8.41,74.25-.31,67.44,0,57.11.38,45.11,2.08,38.79,15.29,40.36Z"/><path class="cls-2" d="M263.42,275.44c2.5-4.13,6.22-10.75,10.45-17,2.19-3.27,4.79-6.8,8.08-8.63s8.42-3.34,11.39-2,5.36,6.3,5.64,9.86c1.12,14.15-15.5,29.21-23.78,32C268.38,292,263.25,287.14,263.42,275.44Z"/><path class="cls-2" d="M481.56,392.77c.33,10.16-4.55,15.84-13.39,17-5.89.78-16.51-7.77-17.75-14.62-.67-3.66-1.63-7.68-.75-11.11,1.09-4.2,3.09-10.05,6.27-11.35a20.1,20.1,0,0,1,15.09.75A19.17,19.17,0,0,1,481.56,392.77Z"/><path class="cls-2" d="M19.85,400.89c-.07-5.91.7-11.64,7-14.09s12.19-1.64,17.47,3.3c10.12,9.46,10.15,26.35-.2,31.69C35,426.47,22.57,420.23,20.69,410,20.15,407,20.12,403.92,19.85,400.89Z"/><path class="cls-2" d="M318,214.74c0-9.17,7.12-15.67,17-15.56,11.05.13,20.74,8.93,20.75,18.84,0,7.56-9.14,14.61-18.65,14.39S317.93,223.17,318,214.74Z"/><path class="cls-2" d="M578.86,351.1c-.21,8.21-8.25,14.77-18.07,14.71-9.16-.05-18.67-9.71-18.47-18.76.2-8.78,7.34-14.94,17.13-14.77C570.77,332.47,579.12,340.57,578.86,351.1Z"/><path class="cls-2" d="M397.3,345.42c-9.65-.08-13.1-4.38-13.11-16.35,0-10.79,7.11-17.94,17.52-17.6,9.72.32,17.71,8.15,17.66,17.3C419.32,338.4,409.87,345.53,397.3,345.42Z"/><path class="cls-2" d="M568.75,20.24c.18-1.86.38-3.71.54-5.57.57-7,4.86-12.36,11.07-12.4,3.82,0,9.35,4.88,11.15,8.89,3,6.65,4.26,14.32,4.87,21.67.28,3.38-2,7.7-4.4,10.44-5.42,6.15-10.36,5.83-14.71-1.23-4.06-6.56-6.85-13.91-10.19-20.91Z"/><path class="cls-2" d="M147.4,361.18c0,8-8.3,15.26-17.67,15.43-9.55.17-18.69-8.85-18.62-18.38.07-8.55,7.28-14.85,17-14.86C139.43,343.36,147.41,350.74,147.4,361.18Z"/><path class="cls-2" d="M372.93,515.48c.08-10.92,8.07-20.32,17.8-20.91,5.75-.34,9.33,2.05,10.38,8,.65,3.65,1.67,7.24,2.5,10.87,1.82,7.94-2.51,16.06-9.92,18.59C382.31,535.91,372.85,528.37,372.93,515.48Z"/><path class="cls-2" d="M397.77,116.89c.13,7-5.71,13.83-13.91,15.83-7.05,1.72-11.91-1.21-15.76-9.48-5.35-11.51,3.47-27.42,16.06-28.89,4.68-.55,8.66.76,10,5.65C395.67,105.4,396.54,111,397.77,116.89Z"/><path class="cls-2" d="M169.42,442.65c.82,6.93-3.25,11.34-8.53,14.09-2.11,1.11-6.8.24-8.59-1.5-8.92-8.7-13.17-19.64-10-31.89,1.05-4,5.62-8,9.58-10,1.87-.95,7.62,2,9,4.54,4.11,7.67,6.92,16,10.24,24.12Z"/><path class="cls-2" d="M134.47,31.3c.08-1.16.21-2.33.23-3.5.1-6.86,4.09-11.25,10.11-12.79,6.43-1.65,10.06,3.77,12.19,8.45,2.68,5.87,4.08,12.41,5.37,18.8s-1.87,11.25-6.89,15.12c-3.56,2.75-6.81,2.87-9.94-.45C138.77,49.73,133.74,41.75,134.47,31.3Z"/><path class="cls-2" d="M601.12,431.76c-.87,3.74-.75,7-2.27,9-6.78,9.12-11.93,10.89-18.79.9-5.4-7.88-8.26-16-7.14-25.71.78-6.81,4.51-12,10.38-12.26,3.83-.16,9.4,4.28,11.48,8.13C598.14,418.07,599.25,425.5,601.12,431.76Z"/><path class="cls-2" d="M533.24,376.76c-.07,11.07-8.31,20.11-18.23,20-7.53-.08-15.18-8.72-15.19-17.17,0-10.21,6.81-18,15.67-17.87C527.46,361.87,533.31,366.83,533.24,376.76Z"/><path class="cls-2" d="M398.21,246.19c-.08,10.78-8,19.44-18,19.58-7.32.1-15.57-9-15.54-17.08,0-9.85,6.88-18.53,15.12-17.83C393.05,232,397.94,235.11,398.21,246.19Z"/><path class="cls-2" d="M84.78,374.46c12,0,17.32,4.36,17.38,14.32.06,11.38-8.4,20.86-18.45,20.67-7.06-.13-14.61-8.51-14.63-16.24C69.05,382.46,75.74,374.47,84.78,374.46Z"/><path class="cls-2" d="M433.45,137.74c-.11,11.46-4.22,17.58-10.86,19.18-5.87,1.42-13.29-2.23-16.44-9.2a42.78,42.78,0,0,1-3.34-14.06c-.45-5.66,1.56-10.76,7.55-12.83s12.15-1.25,16,3.66C430,129.05,432,134.89,433.45,137.74Z"/><path class="cls-2" d="M423.36,534.38c.08-9,4.95-14.47,12.72-14.21,9.66.32,18.17,9.82,18.28,20.41.1,9.59-6,17-14,16.92C431.33,557.4,423.25,546.43,423.36,534.38Z"/><path class="cls-2" d="M270.08,319c.2-8.1,6.54-13.85,15.26-13.84,9.19,0,19.66,8,19.27,14.74-.54,9.25-10.07,18.24-19.06,18S269.83,329.25,270.08,319Z"/><path class="cls-2" d="M541.74,70c7.55.14,16.46,8.68,18.08,16.5s-2.38,16.66-9.08,19.63a14.21,14.21,0,0,1-6.08,1.42c-5.37-.22-13.68-11.1-15.27-19.54a15.37,15.37,0,0,1,8.49-16.93A19.88,19.88,0,0,1,541.74,70Z"/><path class="cls-2" d="M134.09,500.88c-.93,3.45-1.33,6.8-2.69,9.7-4.53,9.6-15.58,10.66-21.72,2.21a50.8,50.8,0,0,1-4.76-7.73c-4.43-9.13-1.85-17.83,6.37-22.15,5.88-3.09,16.47,1.71,20.21,9.44C132.79,495,133.27,498.09,134.09,500.88Z"/><path class="cls-2" d="M545,470.69c9.22-.13,19.07,9.6,20.3,17.53,1.31,8.48-3.76,17-11.67,19.29a10.63,10.63,0,0,1-5.47.29c-9.16-2.53-17.06-21.75-11.75-29.56C538.85,474.68,543.08,472.33,545,470.69Z"/><path class="cls-2" d="M337.14,542.83c0-10,4.76-15.43,13.35-15.3,9.16.14,16.47,8.73,16.46,19.32,0,10.29-5.45,17.21-13.57,17.28C344.68,564.21,337.12,554.3,337.14,542.83Z"/><path class="cls-2" d="M128.5,103.76c-2.2,4.22-3.58,8.91-6.55,12.14-6.17,6.74-12.53,6.07-18.16-1.16a43.17,43.17,0,0,1-5.21-8.26c-4-8.59-1.54-17.1,5.85-21.37,5.63-3.25,15.35,0,19.74,7.15C126.16,95.52,127,99.5,128.5,103.76Z"/><path class="cls-2" d="M482.66,102.06c.12,8-8.06,13.16-17.16,8.68C455.76,106,449.57,95.06,452,87c3.16-10.52,11.68-13.36,20.47-7C479.31,84.92,482.32,91.66,482.66,102.06Z"/><path class="cls-2" d="M71.52,514.27c.12,7.56-8,12.7-17.55,8.18-12.76-6-17.22-20.63-9.12-30,4-4.64,8.48-5.92,14.2-2.47C67.22,494.93,71.15,502,71.52,514.27Z"/><path class="cls-2" d="M488.37,503.55c-.05,6.5-7.45,11.29-16.32,7.6-14.47-6-19.4-21.28-10.15-31,4-4.21,8.31-4.94,13.2-2C483.58,483.18,488.26,490.55,488.37,503.55Z"/><path class="cls-2" d="M51.44,118c-.1,8.18-7.82,13.12-16.84,9.18-13.77-6-18-21.06-8.69-30.8,3.49-3.65,7.24-4.67,12-2.14C46.81,99,51.3,106.31,51.44,118Z"/><path class="cls-2" d="M576,282.13c-3.23,7.91-5.94,16.09-10,23.56-1.35,2.51-6.76,5.15-9,4.3-3.22-1.2-7.42-5.62-7.37-8.59.14-7.22,2-14.56,4.15-21.52,1.21-3.85,4.21-7.31,7-10.44,1.67-1.89,4.63-4.13,6.65-3.81s4.39,3.26,5.36,5.57c1.33,3.14,1.48,6.77,2.13,10.19Z"/><path class="cls-2" d="M436.33,261.88c-2.92,12-6.29,21.88-14.94,28.88-3.88,3.13-8.48,4.35-13,1.33-4.68-3.12-4-7.83-2-11.93,3.83-7.68,7.59-15.56,12.71-22.35,2.12-2.82,7.89-4.53,11.57-3.95C433.15,254.23,434.82,259.55,436.33,261.88Z"/><path class="cls-2" d="M143.77,293.58c-2.76,7.09-5.29,15.33-9.26,22.81-1.42,2.66-6.75,5.26-9.52,4.61s-6.11-5-6.87-8.31c-3.26-14.16,5.27-24.51,13-34.65,3-3.91,7.13-2,8.92,2C141.76,283.77,142.32,288,143.77,293.58Z"/><path class="cls-2" d="M157.5,207.16c.15-9.64,16.37-29.32,26-30.85,2.67-.43,6.6.24,8.21,2s1.59,5.81.59,8.12c-5.13,11.8-12.44,22-24.75,27.25C161.92,216.09,157.41,212.94,157.5,207.16Z"/><path class="cls-2" d="M589.61,195.26c.86-2,1.89-5.65,3.82-8.75,5.35-8.61,11.43-16.82,21.93-19.4a11.22,11.22,0,0,1,8.73,2.33c1.36,1.18,1.34,5.48.33,7.63-5.35,11.36-12.06,21.78-24.61,26.4C593.89,205.66,589.69,202.7,589.61,195.26Z"/><path class="cls-2" d="M466.46,319.66c8.6-.27,14.47,5.36,17.66,15.32,2.34,7.3.29,14.45-5.41,18-1.51.94-3.54,1.82-5.19,1.61-8.64-1.08-14.17-7.34-16.62-14.41-1.59-4.61.86-11.13,2.88-16.25C460.7,321.6,465,320.56,466.46,319.66Z"/><path class="cls-2" d="M460.5,25.3c-2.87,12.19-6,22.66-15,29.48-2.86,2.16-8.8,2.73-11.93,1.18-2.08-1-3.28-7.75-2.05-10.78a121.3,121.3,0,0,1,12.83-23.89c1.85-2.64,7.46-4.22,10.91-3.63C457.57,18.06,459.1,23.1,460.5,25.3Z"/><path class="cls-2" d="M665,389c-.12,1.16.12,2.54-.42,3.45-2,3.39-3.63,8.32-6.59,9.39-2.29.83-7.51-2.47-9.41-5.29-6.13-9.09-10.23-19.13-6-30.31,1-2.74,3.78-6.51,6-6.72,2.76-.26,7.3,2,8.48,4.43,3.8,7.84,6.41,16.26,9.47,24.46Z"/><path class="cls-2" d="M234.11,397.47a58.63,58.63,0,0,1-1.18,6.91c-2.15,7.33-7.52,8.77-13.21,3.67-7.6-6.83-12.17-23.38-8.43-32.89,1.14-2.9,4-6.73,6.51-7s7,2.42,8.26,5c3.74,7.64,6.33,15.85,9.36,23.84Z"/><path class="cls-2" d="M587.68,69c.42-7.81,2.74-14.09,9.24-18.48,5.91-4,11-2.85,14.72,3.3,6.15,10.28-1,29.13-12.68,32-2.29.56-6.73-1.47-7.81-3.54C589.09,78.26,588.74,73.42,587.68,69Z"/><path class="cls-2" d="M381.71,168.48c-.86,2.78-1.68,8.3-4.27,12.82-1.81,3.17-6,6.79-9.18,6.88-3.68.11-8.67-2.54-11-5.59-6.47-8.54-1.91-23.59,7.76-28.38C373.5,150,382.41,156.26,381.71,168.48Z"/><path class="cls-2" d="M56.08,354.15c-1.39,7-3.73,12.83-9.58,14.11-3.89.85-9.56-1.38-12.92-4.1-8.34-6.74-9.63-12.74-6.42-21C30.72,334,41,331.35,47.4,338.67,51.22,343,53.25,348.94,56.08,354.15Z"/><path class="cls-2" d="M161.24,478.89c.26-7.57,2.35-13.9,8.76-18.39,6.08-4.26,10.72-3.42,14.71,2.83,6.19,9.68-.41,28.3-11.35,32.09-5,1.75-8.4-.56-10-5C162.09,486.8,161.91,482.76,161.24,478.89Z"/><path class="cls-2" d="M591.35,470c2.64-5.72,4.58-12,8.22-16.94,1.86-2.54,7.62-4.76,10.13-3.68a15.58,15.58,0,0,1,7.92,9.65c2.06,9.22-.68,17.71-8.12,24.08s-13.62,4.24-15.75-5.33a70,70,0,0,1-.84-7Z"/><path class="cls-2" d="M426.43,477.94c-.09,6.69-4.48,10.86-11.18,10.63-11.16-.39-22-16.25-18.29-26.82,1.57-4.5,7.77-7.45,12.75-6.05C417.55,457.89,426.54,469.86,426.43,477.94Z"/><path class="cls-2" d="M153.78,78.37c2.82-5.28,4.7-11.46,8.68-15.62,6.62-6.92,14.6-4.06,17.35,5.28s-2.09,22-10.31,27.09c-6.08,3.78-11,2.18-13-4.7-1-3.51-1-7.32-1.48-11Z"/><path class="cls-2" d="M420.61,75.93c.12,9-6.43,13.88-14.94,11.06C396.25,83.86,389.26,72.1,391,62.35c1-5.42,7.12-8.9,13.11-7.42C411.34,56.7,420.51,68.39,420.61,75.93Z"/><path class="cls-2" d="M322.32,379.25c-4,4.6-7.24,10.33-12.15,13.51-5.51,3.58-12.43,5.93-19.27,1.75-5.56-3.4-6.89-8.19-3.39-13.72,5.33-8.43,14.15-11.31,23.14-13.09C315.76,366.68,320.9,372.58,322.32,379.25Z"/><path class="cls-2" d="M411.15,393.35c-5.52-3.07-12.11-5.65-17.11-10-2.19-1.91-2.24-7.83-1.27-11.38,1.29-4.7,6-7.08,10.74-5.61,7.31,2.27,14.67,4.87,21.31,8.58,5.5,3.08,5.3,9.16,0,12.66C421.25,390,416.82,391,411.15,393.35Z"/><path class="cls-2" d="M339.58,82.65c-7.85-.1-14.1.45-15.52-7.06-1.21-6.42,4.13-13.38,11-15,4.78-1.11,9.68-2.82,14.43-2.55a16.53,16.53,0,0,1,10.58,5.05c1.31,1.51-.22,6.62-1.82,9.3C353.68,80.16,346.27,83.12,339.58,82.65Z"/><path class="cls-2" d="M343.8,482.9c-5.72-.26-12.45.83-13.45-7.46-.9-7.53,3.82-13.15,11.78-14.8,4.34-.9,8.82-2.64,13-2.17,4,.45,8.63,2.49,11.18,5.41,1.25,1.43-1,6.82-2.72,9.76C359.24,481,352.08,483.34,343.8,482.9Z"/><path class="cls-2" d="M519.65,273.47c-1.54,14.72-8.38,25-18.55,33.14-1.88,1.5-6.72,2.07-8,.82-1.77-1.69-2.79-6.21-1.77-8.41,4.87-10.51,5-24,17.44-29.95,2.31-1.11,5.66-2.3,7.56-1.4S518.9,272.05,519.65,273.47Z"/><path class="cls-2" d="M88.36,286.83c-1.33,14.69-8.22,24.8-17.49,33.33-1.88,1.72-6.38,2.09-8.85,1.09-1.41-.57-2.43-5.75-1.48-7.9,4.7-10.64,5-23.83,16.66-30.56,2.25-1.3,5.76-2.9,7.47-2C86.77,281.87,87.59,285.43,88.36,286.83Z"/><path class="cls-2" d="M526.16,220.57c-.15-8.45,7.21-18.11,13.93-18.3s13.68,9.06,13.64,17.79c-.05,9-6.2,14.75-15.89,14.78C530.54,234.86,526.33,229.71,526.16,220.57Z"/><path class="cls-2" d="M94.57,233.31c-.26-8.33,7.92-18.91,14.54-18.83,5.94.07,12.76,9.2,12.84,17.21.09,9-6.61,15.4-16.23,15.58C98.89,247.4,94.84,242.33,94.57,233.31Z"/><path class="cls-2" d="M524.09,192.89c-4.59-.58-7.23-4-7.47-9.33-.51-11.08,17.73-23.63,28-19.4,4,1.67,5.89,4.3,5,8.76C548.11,180.28,532.43,193.17,524.09,192.89Z"/><path class="cls-2" d="M302.36,538.88c-6.85,0-10.22-3-10.37-9.52-.29-12,6.52-19.31,18.09-19.4,6.25,0,10.39,3.73,10.56,9.66C321,529.81,312.39,538.82,302.36,538.88Z"/><path class="cls-2" d="M93.79,206.08c-5,.1-8.68-4.13-8.6-10,.15-10.17,16.68-22.42,26.5-19.77,4.64,1.25,6.71,3.92,6,8.73C116.63,192.11,100.93,205.94,93.79,206.08Z"/><path class="cls-2" d="M207.27,222.33c6.76.2,13.23,7.77,12.9,15.1-.32,7-9.13,15.27-16.09,15.14-6.18-.11-13-8.86-12.66-16.22C191.76,229.15,199.73,222.1,207.27,222.33Z"/><path class="cls-2" d="M639.12,213.7c7,.09,12.9,7,12.74,15-.14,6.92-8.39,15-15.26,14.88-6.63-.07-13-7.86-13-15.85C623.69,219.94,630.68,213.6,639.12,213.7Z"/><path class="cls-2" d="M489.33,149.39c-3.26,5.47-5.11,10-8.22,13.45-5.54,6.1-11.25,4.75-14.54-2.78-2.62-6-7.52-10.94-4.49-18.77,3.79-9.8,9.2-12.08,16.89-5C482.82,139.8,485.56,144.53,489.33,149.39Z"/><path class="cls-2" d="M303.35,136.13c-7.17.21-10.47-2.5-10.78-8.85-.58-11.81,6.14-19.36,17.67-19.86,6.22-.28,10.69,3.48,11,9.23C321.78,126.67,313.36,135.84,303.35,136.13Z"/><path class="cls-2" d="M57.46,166.35c-2.11,3.79-3.68,8.06-6.45,11.28-6.14,7.12-10.79,5.77-15.27-2.5-3.32-6.14-6.55-11.55-3.62-18.92,3.48-8.72,8.37-10.38,15.89-4.86C53,155,56.76,159.16,57.46,166.35Z"/><path class="cls-2" d="M285.66,175.86c.24-6.94,5.65-14.59,12.21-16.59,5.88-1.79,11.11-.34,15.3,4.34,3.76,4.2,4.19,9.07-.21,12.32a68.13,68.13,0,0,1-17.67,9.56C289.8,187.44,285.42,182.45,285.66,175.86Z"/><path class="cls-2" d="M518.07,123.57c7.91.11,15.62,8.17,15.4,16.11a12.71,12.71,0,0,1-13,12c-7.54-.28-14.39-9.13-14.1-18.22C506.57,126.69,510.4,123.46,518.07,123.57Z"/><path class="cls-2" d="M523.74,523.4c8.36,0,16.41,8.06,16.17,16.23-.19,6.13-6.27,11.85-12.59,11.84-7.59,0-14.88-8.69-14.86-17.65C512.48,527,516.38,523.42,523.74,523.4Z"/><path class="cls-2" d="M86.35,137.44c7.69-.13,15.21,7.22,15.49,15.14.22,6.33-6.57,12.83-13.31,12.74s-13.76-8.62-13.94-16.94C74.44,141.69,78.87,137.57,86.35,137.44Z"/><path class="cls-2" d="M305.39,457.75c-7.61-.23-11.79-2.34-13.22-7.9-1.18-4.58,3.53-11.79,8.69-13.93,7.09-2.94,18.4,1.52,21.65,8.52,1.87,4,.37,7.16-3.24,8.68C314.17,455.27,308.74,456.66,305.39,457.75Z"/><path class="cls-2" d="M200.93,418.63c-.06,8.26-4.91,15.1-10.62,15-6-.13-10.88-7.6-10.47-15.9.55-10.94,4-15.93,10.93-15.8C196.88,402,201,408.8,200.93,418.63Z"/><path class="cls-2" d="M194.24,18.6c0,9.1-5.1,16.41-11.18,15.91-6.54-.55-11.12-8.92-9.68-17.71,0-.23.13-.45.16-.68,1.72-9.9,5-13.81,11.08-13.35C190.38,3.21,194.19,9.49,194.24,18.6Z"/><path class="cls-2" d="M632.1,409.57c-.15,8.28-4.89,15.17-10.49,15.25s-10.89-7.9-10.54-16c0-.23,0-.46,0-.7.77-10.55,4.25-15.47,10.78-15.21C628,393.14,632.28,400.11,632.1,409.57Z"/><path class="cls-2" d="M295.87,58.5c-2.81-2-7.2-3.75-8.77-6.87-1.27-2.53.08-7.18,1.66-10.15,2.92-5.49,8.82-8.14,14.29-6.2,5.07,1.8,9.5,6.09,13.33,10.13.78.82-1.64,6.76-3.86,7.93C307.9,55.77,302.44,56.59,295.87,58.5Z"/><path class="cls-2" d="M254.67,137c.14,11.05-9.6,23.25-18.23,24.41-5.35.71-8.2-3.46-6.74-7.31a96.25,96.25,0,0,1,11.53-21.27c1.31-1.86,6.66-2.07,9.59-1.17C252.9,132.27,254,136,254.67,137Z"/><path class="cls-2" d="M445.77,199c.29-9.89,4.58-16.19,10.92-16,7.17.18,12.3,6,12,13.61-.36,8.5-5.92,14.93-12.8,14.81C449.31,211.28,445.54,206.65,445.77,199Z"/><path class="cls-2" d="M272.29,420.67c.06,7.47-4.53,12.81-11,12.76-7.15-.05-12.54-4.91-12.59-11.36,0-7.8,6.3-15.74,12.79-16C267.67,405.82,272.22,412,272.29,420.67Z"/><path class="cls-2" d="M475.45,247.75c1.24-8.34,7.36-15.5,15.85-20.49,5.52-3.25,10.54.6,9.52,7-1.7,10.74-8.91,17.79-17.59,23.17C478.9,260.15,475,256.05,475.45,247.75Z"/><path class="cls-2" d="M373.1,428.45c-3.57-.91-7.63-1.07-10.55-3-2.48-1.61-5.32-5.51-4.95-7.94a14.1,14.1,0,0,1,6.22-8.89c2.92-1.74,7.22-1.45,10.93-1.52,6.91-.14,11.76,4.15,11.89,10.07.13,6.26-4.05,10.15-11.28,10.48-.69,0-1.39.09-2.09.13Z"/><path class="cls-2" d="M44.8,263.33c1.31-8.77,7.47-16.3,15.91-21.79,5.16-3.36,9.9.14,9.24,6.43-1.19,11.25-8.86,18.34-17.35,24.31C48.72,275,44.62,270.94,44.8,263.33Z"/><path class="cls-2" d="M370,5.05c3.47,2.14,8,3.56,10.08,6.63,1.64,2.42,1.28,7.27.05,10.34-2.52,6.3-9.2,5.47-14,4.86a22.17,22.17,0,0,1-12.91-6.5c-3.4-3.84,1-11.41,6.82-12.88,2.91-.74,6-.74,9-1.08Z"/><path class="cls-2" d="M16.22,215.66c.23-11.76,4.94-17.48,12.93-16.17,6.46,1.06,10.48,7.64,9.1,14.89-1.66,8.73-8,14.64-14.37,13.08S15.76,221.13,16.22,215.66Z"/><path class="cls-2" d="M266,21.15c0,7.82-4.14,12.45-11,12.44S242.42,28.86,242.27,23c-.19-7.59,6.88-16.22,13.42-16.37C262.45,6.49,266,11.49,266,21.15Z"/><path class="cls-2" d="M577.11,145.26c0,6.36-6,11.79-13.17,12-6.25.18-12-6.54-11.94-14a11.17,11.17,0,0,1,10.8-10.85C569.75,132.25,577.1,138.87,577.11,145.26Z"/><path class="cls-2" d="M568.91,532.53c6.82-.15,14.07,5.93,14.28,12,.24,6.91-5.54,12.6-13.06,12.84-5.89.19-11.76-6.25-12.12-13.26A11.32,11.32,0,0,1,568.91,532.53Z"/><path class="cls-2" d="M585.69,151.16c.78-7.56,5.65-13.9,12.62-17.88,2.22-1.28,7.88.71,10.09,3,1.89,2,2.7,7.78,1.2,9.66a57,57,0,0,1-14.41,12.66C590.17,161.7,585.63,158.17,585.69,151.16Z"/><path class="cls-2" d="M151.68,161.77c4.44-6,8.42-12.53,13.64-17.79,1.47-1.49,7.57-.51,9.76,1.4s3.94,7.85,2.66,9.46a69.64,69.64,0,0,1-15.59,14.53c-4.14,2.76-8.84-1.18-8.78-6.35Z"/><path class="cls-2" d="M346.67,366.11c-6.68.21-8.36-3.66-8.28-8.59.14-8.08,5.36-13.27,11.36-17.47,3.74-2.61,9.22-.12,10.95,4.21C364.51,353.81,356.21,366.15,346.67,366.11Z"/><path class="cls-2" d="M626.59,29.73c-6.68.21-8.36-3.67-8.28-8.6.14-8.07,5.36-13.26,11.36-17.46,3.74-2.61,9.22-.12,11,4.2C644.43,17.42,636.13,29.77,626.59,29.73Z"/><path class="cls-2" d="M602.54,499c1.47,1,5.2,2.36,6.7,5,1.3,2.28,1.25,6.89-.28,8.9a57.26,57.26,0,0,1-12.6,11.91c-1.93,1.36-6.4,1.37-8.23,0s-2.69-5.34-2.36-8C586.83,508.61,595,499.29,602.54,499Z"/><path class="cls-2" d="M453.19,303.89c-.88-1.18-3.79-3.29-3.95-5.6-.56-7.83,9.46-19.69,16.12-20,4.66-.24,9.7,4.81,10,10C475.73,295.39,465.33,303.49,453.19,303.89Z"/><path class="cls-2" d="M144.75,156.51c0,6.9-5.67,12.17-13.35,12.31-5.82.11-11-5.78-11.13-12.79A10.9,10.9,0,0,1,131,144.6C138.09,144.4,144.72,150.12,144.75,156.51Z"/><path class="cls-2" d="M22.21,319.22c-.66-1.6-3.22-4.82-2.44-6.48a85.2,85.2,0,0,1,10.4-17c2.62-3.28,7.09-3.86,10.68-.58s5.42,7.65,3.25,12.64C41.64,313.47,30.6,319.85,22.21,319.22Z"/><path class="cls-2" d="M651.35,274.87c-1.3,2-3.32,6.56-6.74,9.55-1.55,1.37-7.53.66-8.58-1-2.43-3.77-4.38-8.76-4.14-13.13.46-8.22,5.9-13.69,10.94-13.07C647.14,257.77,651.35,265.1,651.35,274.87Z"/><path class="cls-2" d="M219.48,280.84c0,7.45-4.67,13.51-10.36,13.42-6.1-.1-10-5.7-9.56-13.69.48-8.31,5.53-15,11.1-14.74C215.34,266.07,219.47,273.1,219.48,280.84Z"/><path class="cls-2" d="M188.11,337.7c.12-7.47,5.74-14,12-13.94,4.71.05,9,6.15,8.8,12.49-.2,6-6.41,12.49-12,12.59C191.46,349,188,344.57,188.11,337.7Z"/><path class="cls-2" d="M619.58,328.31c.4-7.31,5.86-13.24,12.09-13.14,4.86.08,8.89,5.93,8.64,12.54-.23,6-6.78,12.57-12.28,12.31C622.8,339.78,619.22,334.82,619.58,328.31Z"/><path class="cls-2" d="M351.79,288.74c-1.82,3.53-2.88,8-5.71,10.28-2.39,1.93-7.11,2.28-10.27,1.42-1.79-.48-3-4.74-3.56-7.48-.45-2.38.2-5.1.87-7.53,1.44-5.22,3.94-10.06,10.36-9.14C350.08,277.23,350.65,282.65,351.79,288.74Z"/><path class="cls-2" d="M548.69,20.67c-6.78,0-10.45-3.45-10.65-10.17C537.84,4,541.06,0,546.58,0c6.94,0,12.27,4.63,12.27,10.76S555,20.62,548.69,20.67Z"/><path class="cls-2" d="M252.65,372.57c-8.14.56-9.84-4.09-10.36-9.2-.59-5.8,4.94-11.57,10.61-11.73,5.87-.16,9.75,4.21,9.88,11.13C262.91,369.29,259.16,372.47,252.65,372.57Z"/><path class="cls-2" d="M541.94,410.47c.24-6.76,3.07-9.49,9.48-9.13S563,406.8,562.66,412.4a9.93,9.93,0,0,1-10.7,9.68C545.23,421.75,541.68,417.64,541.94,410.47Z"/><path class="cls-2" d="M164.11,253.94c-.17,8.34-5.44,15.21-11.61,14.8-6-.39-6.73-4.83-6.68-9.54.09-7.52,6.39-14.88,12.34-14.55C162.39,244.88,164.24,247.76,164.11,253.94Z"/><path class="cls-2" d="M595.85,243.53c-.22,8.77-5.63,15.84-11.35,15.12s-7.15-5.21-7-10.3c.23-7.15,6.43-14.16,12.28-13.71C596.16,235.12,595.65,240.07,595.85,243.53Z"/><path class="cls-2" d="M103.37,24.52c0-5.41,1.31-9.92,7.86-10.26,7.11-.36,12.55,4,12.71,10.14.15,5.75-4.1,10.12-10.07,10.35C107.32,35,103.46,31.25,103.37,24.52Z"/><path class="cls-2" d="M119.74,412.41c6.61.16,11.85,5,11.57,10.64a10.43,10.43,0,0,1-10.73,9.87c-6.32-.06-10-4.13-9.91-10.91C110.79,415,113.36,412.26,119.74,412.41Z"/><path class="cls-2" d="M649.32,43.92c.78-4.19-.34-10.61,7-11.72,4.33-.64,8.18,5.45,8.12,12,0,5.74-4.47,11.83-8.7,12S649.13,52.07,649.32,43.92Z"/><path class="cls-2" d="M202.21,544.12c-.13,7.59-3,11.57-8.2,11.58s-7.78-3.93-7.75-11.81c0-5.35,1.91-9.31,7.69-9.71C199,533.83,202.32,538.18,202.21,544.12Z"/><path class="cls-2" d="M222.27,452.3c.75-4.11-.23-10.49,7.11-11.49,4.33-.58,8.21,5.56,8.19,12,0,5.69-4.6,11.93-8.73,11.9S222.22,460.18,222.27,452.3Z"/><path class="cls-2" d="M231.07,53.77c-.25,1-.13,3.39-1.25,4.51-2.58,2.59-5.77,4.57-8.72,6.8-1.76-3-3.7-5.89-5.2-9-.54-1.12-.06-2.75,0-4.14.4-5,.84-11,7.3-10.62C229.31,41.72,230.71,47.5,231.07,53.77Z"/><path class="cls-2" d="M651.64,446.25c1.63-9.78,4.35-14.85,9-14.16,6.52,1,7.46,6.4,7.87,11.62.45,5.54-5.68,13.79-9,12.05S654.21,449.53,651.64,446.25Z"/><path class="cls-2" d="M594.12,300.2c.1-6.79,4.06-12.16,9.19-11.72,6.83.59,6.47,6.47,7,11.1.53,4.9-5.35,10.72-10,10.65C596.17,310.17,594,306.66,594.12,300.2Z"/><path class="cls-2" d="M300.91,19.49c.09-6.79,4-12.16,9.18-11.72,6.83.59,6.47,6.48,7,11.1.53,4.9-5.35,10.72-10.05,10.65C303,29.46,300.81,26,300.91,19.49Z"/><path class="cls-2" d="M54.38,560.28c-1.62-1.74-5.6-4.77-7.72-8.79-1-1.83,1.12-7.48,3-8.12,4.23-1.48,9.55-2.21,13.73-1,7.89,2.37,11.94,8.93,10.16,13.69C72,560.17,63.88,562.55,54.38,560.28Z"/><path class="cls-2" d="M131,532.69c7,2.09,11.51,8.78,10,14.82-1.21,4.7-7.85,7.26-14.21,5.47-5.79-1.63-10.64-9.52-9.11-14.81C119.08,533.14,124.73,530.82,131,532.69Z"/><path class="cls-2" d="M164.25,514.49c6.59,1.68,10.88,6.78,9.26,11.67-2.17,6.51-7.81,4.78-12.43,4.19-4.88-.62-9.17-7.7-8-12.25C154.09,514.15,158,512.89,164.25,514.49Z"/><path class="cls-2" d="M409,205.2c-.28-7.07,1.31-11.12,7.31-11.55,5.09-.37,8.6,3.6,8.73,9.44.18,8.12-2.48,12-8.15,12C411.59,215,409.11,211.4,409,205.2Z"/><path class="cls-2" d="M19.33,15.56C19.05,8.49,20.64,4.44,26.63,4c5.1-.36,8.61,3.61,8.74,9.44.17,8.12-2.49,12-8.15,12C21.9,25.39,19.43,21.76,19.33,15.56Z"/><path class="cls-2" d="M178.49,308.44c-.07,5.82-5.17,11.62-9.94,11.26-6.36-.48-6-5.79-6.21-10.05-.37-6.47,4.37-12.06,9.64-11.49C178.52,298.85,177.9,304.34,178.49,308.44Z"/><path class="cls-2" d="M245.44,315.5c-3.34,3.42-5.58,7.54-8.41,8-2.12.34-6.79-3.77-7.16-6.35-.67-4.74.77-9.86,1.93-14.67.18-.75,4.79-1.59,5.3-.89C240,305.54,242.22,309.94,245.44,315.5Z"/><path class="cls-2" d="M633,548c-3.34,3.42-5.57,7.54-8.4,8-2.12.35-6.79-3.77-7.16-6.35-.67-4.73.76-9.85,1.93-14.67.18-.74,4.79-1.58,5.3-.88C627.55,538,629.8,542.45,633,548Z"/><path class="cls-2" d="M174.39,376.77c-1.64,6.36-3.5,10.64-8.85,10.69-5.88.06-6.76-4.91-6.57-9.57.2-4.9,2-10.47,7.24-10.1C169.13,368,171.68,373.6,174.39,376.77Z"/><path class="cls-2" d="M216.42,204.61c-1-1.65-2.86-3.48-2.49-4.34a197.27,197.27,0,0,1,9.31-19.05c.62-1.08,3.66-.8,5.58-1.15.17,1.71,1,3.75.38,5.07-2.79,5.79-5.95,11.4-9.13,17C219.56,203,218.23,203.41,216.42,204.61Z"/><path class="cls-2" d="M649.32,554c-1-1.65-2.86-3.48-2.49-4.34a197.27,197.27,0,0,1,9.31-19.05c.62-1.08,3.66-.8,5.58-1.15.17,1.71,1,3.75.38,5.07-2.79,5.79-5.94,11.4-9.13,17C652.46,552.43,651.13,552.84,649.32,554Z"/><path class="cls-2" d="M22.1,542.7c-1-1.65-2.86-3.48-2.49-4.34a193.86,193.86,0,0,1,9.31-19.05c.62-1.08,3.65-.8,5.57-1.15.17,1.71,1,3.75.39,5.07-2.79,5.79-6,11.4-9.14,17C25.24,541.09,23.91,541.5,22.1,542.7Z"/><path class="cls-2" d="M411.28,30.9c-1-1.65-2.86-3.48-2.49-4.34a196,196,0,0,1,9.31-19c.62-1.09,3.66-.81,5.58-1.15.16,1.7,1,3.74.38,5.07-2.79,5.78-5.95,11.39-9.13,17C414.42,29.29,413.09,29.7,411.28,30.9Z"/><path class="cls-2" d="M605.58,367.62c-1.58,6.29-3.8,10.52-9,10.41s-6.49-4.68-6.31-9.28c.2-5.23,2-10.88,7.56-10.62C600.58,358.26,603,364.27,605.58,367.62Z"/><path class="cls-2" d="M663.34,175.37c-4.07,6.32-8.08,12.68-12.43,18.81-.2.28-4.78-1.3-5-2.51-1-4.58,6.62-18.33,10.94-20,1.43-.57,3.52.51,5.31.84Z"/></pattern><clipPath id="clip-path"><rect class="cls-1" x="262.72" y="21.77" width="381.96" height="657.13" rx="7.85" ry="7.85"/></clipPath></defs><title>Asset 1</title><g class="cls-3"><g id="Layer_2" data-name="Layer 2"><g id="Layer_1-2" data-name="Layer 1"><rect class="cls-4" x="262.92" width="382.24" height="678.94"/><rect class="cls-5" x="262.92" width="382.24" height="678.94"/><g class="cls-6"><g class="cls-7"><path class="cls-8" d="M83.7,306.26c-3.74,1.67-7,3.18-10.27,4.59s-5,1-7.06-2c-.89-1.33-1.62-1.63-3-.88-1.9,1-3.91,1.82-5.86,2.73-6.66,3.1-12.23,1.54-15.81-4.8-1.2-2.13-2.1-2.2-4.12-1.2-4.73,2.37-9.61,4.47-14.44,6.65a18.75,18.75,0,0,1-15.68,0,12.61,12.61,0,0,1-7-7.46c-1-2.58-.29-4.25,2.22-5.45,2.75-1.32,5.5-2.64,8.31-3.82,1.66-.7,1.69-1.36.53-2.65-2.82-3.14-5.8-6.14-7.89-9.88a24.5,24.5,0,0,1-2.78-7c-1-4.88.77-8.72,5.35-10.83Q31,252.81,55.88,241.46q44.19-20.31,88.38-40.63,74.69-34.29,149.39-68.55C311.37,124.16,329,115.9,346.84,108c5.82-2.58,12-1.91,17.8.69a6.51,6.51,0,0,1,3.2,2.79c.79,1.48,1.71,1.48,3.07.78,2.07-1.07,4.23-2,6.36-2.91,4.57-2,7.89,0,8.28,4.94s.38,4.83,4.81,2.8q8.56-3.93,17.15-7.82c3.57-1.63,5.93-1.2,8.22,1.91,1.15,1.55,2,.56,3,.14q18.13-8.26,36.24-16.61,23.51-10.78,47-21.57c1.7-.79,3.38-1.71,5.39-1.39,3.71.59,5.94,3,6,7.42.14,6.47.13,12.94-.25,19.41-.11,1.92-1,4.5.47,5.59,1.09.83,3.14-1.08,4.76-1.78,3.68-1.57,7.11-3.76,11.53-2.45,1.53.46,3.08-1.21,4.67-1.78,2.68-1,5-2.89,8-2.94,4.76-.09,6.57,1.61,6.65,6.35,0,.59-.28,1.24.37,2,2.53-1.14,5.11-2.34,7.71-3.48,3-1.31,6.33-.89,8,1a7.31,7.31,0,0,1,.93,7.6,6.2,6.2,0,0,1-3.29,3c-2.47,1.06-4.9,2.23-7.36,3.34-1.06.48-1.53,1-.24,1.78.3.19.7.34.86.63,2.24,3.8,4.92,2.93,8.19,1.23,5.33-2.77,11-5,16.36-7.62a18.29,18.29,0,0,1,15.39-.36,5.63,5.63,0,0,0,3.84.19c4.16-1.13,10.06.36,10,7.12,0,11.42.21,22.85-.1,34.26-.23,8.61-.9,17.22-3.65,25.51a23.08,23.08,0,0,1-13.24,14.59c-42.78,19.39-85.43,39.1-128.12,58.7L303.3,325.26c-15.59,7.15-31.09,14.53-46.8,21.41-14.24,6.24-25.26-1.43-29.54-14.76-.93-2.9.15-4.71,2.92-6,7.4-3.43,14.75-7,22.26-10.15,2.84-1.2,4-2.68,3.78-5.75-.24-4.13,0-4.15-3.86-2.36a51.73,51.73,0,0,1-9,3.67c-7.33,1.85-12.19-.59-14.57-7.7-.84-2.52-1.64-2.55-3.83-1.58-6.56,2.9-12.73,6.8-19.82,8.35-5.49,1.19-10.78.45-15.3-3.17-1.27-1-2.22-.71-3.41-.16q-34.28,15.76-68.56,31.5l-24,11c-.32.15-.64.32-1,.44-5.35,2-8.83-.17-8.92-5.85-.15-9.35,0-18.7,0-28.06Z"/></g><path class="cls-9" d="M83.7,305.54c-3.74,1.67-7,3.18-10.27,4.59s-5,1.05-7.06-2c-.89-1.33-1.62-1.63-3-.88-1.9,1-3.91,1.82-5.86,2.73-6.66,3.1-12.23,1.54-15.81-4.8-1.2-2.13-2.1-2.2-4.12-1.2-4.73,2.37-9.61,4.47-14.44,6.65a18.75,18.75,0,0,1-15.68,0,12.61,12.61,0,0,1-7-7.46c-1-2.58-.29-4.25,2.22-5.45,2.75-1.32,5.5-2.64,8.31-3.82,1.66-.7,1.69-1.36.53-2.65-2.82-3.14-5.8-6.14-7.89-9.88a24.5,24.5,0,0,1-2.78-7c-1-4.88.77-8.72,5.35-10.83Q31,252.09,55.88,240.74q44.19-20.31,88.38-40.63,74.69-34.29,149.39-68.55c17.72-8.12,35.37-16.38,53.19-24.28,5.82-2.58,12-1.91,17.8.69a6.51,6.51,0,0,1,3.2,2.79c.79,1.48,1.71,1.48,3.07.78,2.07-1.07,4.23-2,6.36-2.91,4.57-2,7.89,0,8.28,4.94s.38,4.83,4.81,2.8q8.56-3.93,17.15-7.82c3.57-1.63,5.93-1.2,8.22,1.91,1.15,1.55,2,.56,3,.14q18.13-8.26,36.24-16.61,23.51-10.78,47-21.57c1.7-.79,3.38-1.71,5.39-1.39,3.71.59,5.94,3,6,7.42.14,6.47.13,12.94-.25,19.41-.11,1.92-1,4.5.47,5.59,1.09.83,3.14-1.08,4.76-1.78,3.68-1.57,7.11-3.76,11.53-2.45,1.53.46,3.08-1.21,4.67-1.78,2.68-1,5-2.89,8-2.94,4.76-.09,6.57,1.61,6.65,6.35,0,.59-.28,1.24.37,2,2.53-1.14,5.11-2.34,7.71-3.48,3-1.31,6.33-.89,8,1a7.31,7.31,0,0,1,.93,7.6,6.2,6.2,0,0,1-3.29,3c-2.47,1.06-4.9,2.23-7.36,3.34-1.06.48-1.53,1-.24,1.78.3.19.7.34.86.63,2.24,3.8,4.92,2.93,8.19,1.23,5.33-2.77,11-5,16.36-7.62a18.29,18.29,0,0,1,15.39-.36,5.63,5.63,0,0,0,3.84.19c4.16-1.13,10.06.36,10,7.12,0,11.42.21,22.85-.1,34.26-.23,8.61-.9,17.22-3.65,25.51a23.08,23.08,0,0,1-13.24,14.59c-42.78,19.39-85.43,39.1-128.12,58.7L303.3,324.54c-15.59,7.15-31.09,14.53-46.8,21.41-14.24,6.24-25.26-1.43-29.54-14.76-.93-2.9.15-4.71,2.92-6,7.4-3.43,14.75-7,22.26-10.15,2.84-1.2,4-2.68,3.78-5.75-.24-4.13,0-4.15-3.86-2.36a51.73,51.73,0,0,1-9,3.67c-7.33,1.85-12.19-.59-14.57-7.7-.84-2.52-1.64-2.55-3.83-1.58-6.56,2.9-12.73,6.8-19.82,8.35-5.49,1.19-10.78.45-15.3-3.17-1.27-1-2.22-.71-3.41-.16q-34.28,15.76-68.56,31.5l-24,11c-.32.15-.64.32-1,.44-5.35,2-8.83-.17-8.92-5.85-.15-9.35,0-18.7,0-28.06Z"/></g><text class="cls-10" transform="translate(336.48 153.5)"><tspan xml:space="preserve">supd  g</tspan></text><path class="cls-8" d="M562.07,136.25a23.37,23.37,0,0,1-1.39,7.93,18.62,18.62,0,0,1-8,9.68,25,25,0,0,1-8.88,2.95,19,19,0,0,1-2.63.18,20.79,20.79,0,0,1-6.64-1.11,16,16,0,0,1-8.33-6.95,24.75,24.75,0,0,1-3.5-11.2c-.06-.63-.09-1.26-.09-1.88a22.91,22.91,0,0,1,2.07-9.64,16.08,16.08,0,0,1,8.11-8,27.26,27.26,0,0,1,9.9-1.7c.65,0,1.31,0,2,0a18.3,18.3,0,0,1,11.07,3.94,20.31,20.31,0,0,1,5.87,11.07A24.44,24.44,0,0,1,562.07,136.25Z"/><path class="cls-8" d="M566.13,108.41a7.19,7.19,0,0,1-.43,2.5,5.92,5.92,0,0,1-2.51,3,7.73,7.73,0,0,1-2.78.92,5.83,5.83,0,0,1-.84.06,6.52,6.52,0,0,1-2.07-.35,5,5,0,0,1-2.63-2.19,7.66,7.66,0,0,1-1.09-3.52,5.83,5.83,0,0,1,0-.59,7.1,7.1,0,0,1,.65-3,5,5,0,0,1,2.55-2.51,8.61,8.61,0,0,1,3.1-.54l.62,0a5.85,5.85,0,0,1,3.49,1.24,6.46,6.46,0,0,1,1.84,3.47A7.44,7.44,0,0,1,566.13,108.41Z"/><path class="cls-8" d="M548.55,104.11a7.37,7.37,0,0,1-.43,2.49,5.84,5.84,0,0,1-2.51,3,7.62,7.62,0,0,1-2.78.93,5.83,5.83,0,0,1-.84.06,6.53,6.53,0,0,1-2.08-.35,5,5,0,0,1-2.62-2.19,7.67,7.67,0,0,1-1.1-3.52,5.68,5.68,0,0,1,0-.59,7.15,7.15,0,0,1,.65-3,5.07,5.07,0,0,1,2.54-2.5,8.54,8.54,0,0,1,3.12-.54l.62,0a5.67,5.67,0,0,1,3.48,1.24,6.52,6.52,0,0,1,1.85,3.47A9.23,9.23,0,0,1,548.55,104.11Z"/><path class="cls-8" d="M532.06,108.53a7.17,7.17,0,0,1-.43,2.49,5.84,5.84,0,0,1-2.51,3,8,8,0,0,1-2.78.93,7.73,7.73,0,0,1-.84.05,6.75,6.75,0,0,1-2.07-.34,5,5,0,0,1-2.63-2.19,7.66,7.66,0,0,1-1.09-3.52,5.83,5.83,0,0,1,0-.59,7.08,7.08,0,0,1,.65-3,5.05,5.05,0,0,1,2.54-2.51,8.71,8.71,0,0,1,3.11-.53h.62a5.85,5.85,0,0,1,3.49,1.24,6.49,6.49,0,0,1,1.84,3.48A8,8,0,0,1,532.06,108.53Z"/><text class="cls-11" transform="translate(339.28 149.63)"><tspan xml:space="preserve">supd  g</tspan></text><path class="cls-12" d="M564.88,132.37a23.34,23.34,0,0,1-1.4,7.93,18.62,18.62,0,0,1-8,9.68,25.25,25.25,0,0,1-8.88,3,19,19,0,0,1-2.63.18,20.8,20.8,0,0,1-6.64-1.12,15.94,15.94,0,0,1-8.33-6.95,24.71,24.71,0,0,1-3.5-11.2c-.06-.63-.09-1.26-.09-1.88a22.91,22.91,0,0,1,2.07-9.64,16.11,16.11,0,0,1,8.11-8,27.26,27.26,0,0,1,9.9-1.7c.65,0,1.31,0,2,0a18.43,18.43,0,0,1,11.07,3.94,20.35,20.35,0,0,1,5.87,11.07A24.62,24.62,0,0,1,564.88,132.37Z"/><path class="cls-12" d="M568.94,104.53a7.2,7.2,0,0,1-.44,2.5,5.92,5.92,0,0,1-2.51,3,8,8,0,0,1-2.78.93,5.83,5.83,0,0,1-.84,0,6.25,6.25,0,0,1-2.07-.35,5,5,0,0,1-2.63-2.18,7.74,7.74,0,0,1-1.09-3.53,5.68,5.68,0,0,1,0-.59,7.1,7.1,0,0,1,.65-3,5.07,5.07,0,0,1,2.55-2.51,8.61,8.61,0,0,1,3.1-.54l.62,0A5.92,5.92,0,0,1,567,99.59a6.49,6.49,0,0,1,1.84,3.48A7.29,7.29,0,0,1,568.94,104.53Z"/><path class="cls-12" d="M551.35,100.23a7.33,7.33,0,0,1-.43,2.49,5.84,5.84,0,0,1-2.51,3,7.83,7.83,0,0,1-2.78.94,5.83,5.83,0,0,1-.84.06,6.28,6.28,0,0,1-2.08-.36,5,5,0,0,1-2.62-2.18,7.75,7.75,0,0,1-1.1-3.52q0-.3,0-.6a7.15,7.15,0,0,1,.65-3,5.05,5.05,0,0,1,2.54-2.49,8.34,8.34,0,0,1,3.12-.55l.62,0a5.73,5.73,0,0,1,3.48,1.24,6.51,6.51,0,0,1,1.85,3.48A9,9,0,0,1,551.35,100.23Z"/><path class="cls-12" d="M534.86,104.65a7.13,7.13,0,0,1-.43,2.49,5.84,5.84,0,0,1-2.51,3,7.2,7.2,0,0,1-3.62,1,6.46,6.46,0,0,1-2.07-.34,5,5,0,0,1-2.63-2.19,7.66,7.66,0,0,1-1.09-3.52,5.68,5.68,0,0,1,0-.59,7.11,7.11,0,0,1,.65-3A5.05,5.05,0,0,1,525.67,99a8.71,8.71,0,0,1,3.11-.53h.62a5.85,5.85,0,0,1,3.49,1.24,6.57,6.57,0,0,1,1.84,3.48A8.11,8.11,0,0,1,534.86,104.65Z"/></g></g></g></svg>