<svg xmlns="http://www.w3.org/2000/svg" viewBox="0 0 97.72 44.41"><defs><style>.cls-1{fill:#f6f7f8;}</style></defs><title>Asset 2</title><g id="Layer_2" data-name="Layer 2"><g id="Layer_1-2" data-name="Layer 1"><path class="cls-1" d="M6,12.72a5.31,5.31,0,0,1,3.39,1.45A2.07,2.07,0,0,1,10,15.45a1,1,0,0,1-.16.53.89.89,0,0,1-.84.45,2.5,2.5,0,0,1-.89-.19,3,3,0,0,0-.36-.19A7.46,7.46,0,0,0,6,15.32a1.79,1.79,0,0,0-.49-.08,1.35,1.35,0,0,0-1.09.55,1.27,1.27,0,0,0-.21.72,2.07,2.07,0,0,0,.21.84,8.53,8.53,0,0,0,1.21,1.86c.53.62,1,1.16,1.45,1.63.22.22.4.41.53.56a18.5,18.5,0,0,1,1.73,2.22,6.15,6.15,0,0,1,1,2.42,5.46,5.46,0,0,1,0,.58,4.84,4.84,0,0,1-.55,2.11,3.89,3.89,0,0,1-2.32,1.75,6.87,6.87,0,0,1-1.9.27,7.9,7.9,0,0,1-1.28-.11,6.11,6.11,0,0,1-2.75-1.19A5.14,5.14,0,0,1,.27,27.77a2.29,2.29,0,0,1-.27-1,1.63,1.63,0,0,1,.27-.9.93.93,0,0,1,.63-.3.74.74,0,0,1,.32.07,4.29,4.29,0,0,1,.91.66l.17.17.06,0a6.4,6.4,0,0,0,1.52,1.13,1.89,1.89,0,0,0,.87.23,2,2,0,0,0,.92-.25,1.14,1.14,0,0,0,.55-1,1.91,1.91,0,0,0-.11-.6,7.72,7.72,0,0,0-1.29-2.13c-.6-.74-1.16-1.38-1.67-1.92-.29-.32-.51-.55-.64-.72A13.85,13.85,0,0,1,1,19a6.79,6.79,0,0,1-.82-2.65c0-.11,0-.2,0-.29A3.32,3.32,0,0,1,1,13.85a3.81,3.81,0,0,1,2.33-1.1,13.61,13.61,0,0,1,1.53-.09A10.42,10.42,0,0,1,6,12.72Z"/><path class="cls-1" d="M16.86,25.77a3.11,3.11,0,0,0,2,2l.2,0a1.52,1.52,0,0,0,1-.45,5.25,5.25,0,0,0,1-1.23,8.41,8.41,0,0,0,.65-1.24,23.83,23.83,0,0,0,1.39-6.31c0-.29,0-.64,0-1.06a15.71,15.71,0,0,1,.13-2A3.27,3.27,0,0,1,24,13.77a1.43,1.43,0,0,1,1.15-.45,3.21,3.21,0,0,1,.6.06,2,2,0,0,1,1.32,1,4.53,4.53,0,0,1,.45,1.78c0,.52.06,1,.06,1.54v.36c0,.24,0,.45,0,.64v1.41c0,.94,0,1.89,0,2.83,0,.37,0,.75,0,1.11v.58l0,.64q0,1-.09,2.19a4.68,4.68,0,0,1-.68,2.3,1.7,1.7,0,0,1-1.11.51,1.21,1.21,0,0,1-.38-.06,2.39,2.39,0,0,1-1.22-1,4.66,4.66,0,0,1-.7-1.57,3.26,3.26,0,0,1-.06-.49c0-.09,0-.13,0-.12s0,0-.09.14-.25.39-.51.75a7.18,7.18,0,0,1-2.24,2.13,3.22,3.22,0,0,1-1.64.43,4.61,4.61,0,0,1-1.38-.22A4.92,4.92,0,0,1,15,28a14,14,0,0,1-1.39-3.57,33.91,33.91,0,0,1-.68-3.4c-.08-.43-.17-1.12-.28-2.06s-.19-1.85-.23-2.76c0-.24,0-.46,0-.66a3.94,3.94,0,0,1,.15-1.26,1.25,1.25,0,0,1,1.1-.83h0l.53-.1c1.26,0,1.89.91,1.89,2.72v2c0,.71,0,1.63,0,2.75A17.44,17.44,0,0,0,16.86,25.77Z"/><path class="cls-1" d="M37.77,14.73a8.47,8.47,0,0,1,3.18-1l.29,0A3.68,3.68,0,0,1,43.91,15a6.55,6.55,0,0,1,1.53,3.84c0,.36,0,.73,0,1.09A13.89,13.89,0,0,1,45,23.46a13.17,13.17,0,0,1-1.66,3.94q-2.1,3.17-5.18,3.16a7.79,7.79,0,0,1-3.07-.7c0,1.42,0,2.85,0,4.28s0,2.84,0,4.26c0,.31,0,.65,0,1s.06.86.06,1.29c0,.26,0,.52,0,.79a4,4,0,0,1-.49,1.83,2.19,2.19,0,0,1-1.57,1,4.58,4.58,0,0,1-.77.08,1.58,1.58,0,0,1-1.58-.79,4.79,4.79,0,0,1-.43-2.15c0-.14,0-.28,0-.42q0-6,0-12V19.54c0-1.08,0-2.17,0-3.26v-.11a2.3,2.3,0,0,1,2.53-2.57c1.1,0,1.77.31,2,.89a4.32,4.32,0,0,1,.26,1.56,4.64,4.64,0,0,1,0,.63c0,.11,0,.21,0,.31a9.31,9.31,0,0,1,1.2-1.28A7.9,7.9,0,0,1,37.77,14.73ZM35.11,24.1v2a2.63,2.63,0,0,1,0,.44v.21a.17.17,0,0,0,.08.13,1.53,1.53,0,0,0,.23.15s0,0,0,0a5.62,5.62,0,0,0,2.75.88,2.85,2.85,0,0,0,1.06-.19,4.75,4.75,0,0,0,2.46-2.35,10.45,10.45,0,0,0,1.08-3.79,9.65,9.65,0,0,0,.06-1.05,7.74,7.74,0,0,0-.4-2.57c-.36-1-.82-1.5-1.37-1.62l-.38,0a2.65,2.65,0,0,0-1.4.45A9,9,0,0,0,37.6,18.2,8.22,8.22,0,0,0,36,20.79a18.55,18.55,0,0,0-.79,2.85Z"/><path class="cls-1" d="M62.52,5.61q-.08,4.83-.07,10,0,4.45.06,8.93c0,.39,0,.79.07,1.2s.06.85.06,1.27c0,.24,0,.48,0,.73a6.91,6.91,0,0,0,.19,1.64,1,1,0,0,1,0,.21c0,.32-.36.53-1.06.62a6.23,6.23,0,0,1-1,.06c-1.15,0-2.2-.91-3.15-2.74a.81.81,0,0,0-.32.17l-.64.59a6.1,6.1,0,0,1-.62.52,6,6,0,0,1-.9.57,8,8,0,0,1-3.41,1,3.52,3.52,0,0,1-1.44-.28,4.57,4.57,0,0,1-2.46-3,10,10,0,0,1-.42-2.94,13.34,13.34,0,0,1,.15-2,13.76,13.76,0,0,1,1.7-5A7.51,7.51,0,0,1,52.75,14a4.73,4.73,0,0,1,2-.41,7.6,7.6,0,0,1,3.07.73v-3c0-1.34,0-2.54,0-3.62,0-.67,0-1.34-.07-2s0-1.29,0-1.9v-.6A4.21,4.21,0,0,1,58.4.79,1.78,1.78,0,0,1,60,0a4.28,4.28,0,0,1,.6.05,2.35,2.35,0,0,1,1.83,1.83,10.8,10.8,0,0,1,.17,1.89c0,.31,0,.63,0,1S62.52,5.34,62.52,5.61Zm-4.71,11.7a5.72,5.72,0,0,0-3-1.11,2.67,2.67,0,0,0-.8.12,3.9,3.9,0,0,0-2.32,2.15,11.47,11.47,0,0,0-1.07,3.69A14.23,14.23,0,0,0,50.52,24a8.93,8.93,0,0,0,.21,2c.25,1.1.75,1.72,1.49,1.87l.22,0c.73,0,1.69-.64,2.87-1.91a7.83,7.83,0,0,0,1.59-2.58,21.4,21.4,0,0,0,.8-2.84c0-.15.08-.31.11-.47Z"/><path class="cls-1" d="M89.47,40.83a4.18,4.18,0,0,0,2.42-2.6A15.59,15.59,0,0,0,92.8,34q.18-2.29.18-3.93V27a7.51,7.51,0,0,1-2.73,2.37,7.84,7.84,0,0,1-3.41.92,4.62,4.62,0,0,1-1.19-.15q-2-.54-2.83-3.58a12.37,12.37,0,0,1-.24-2.46,14,14,0,0,1,.17-2.21A13.76,13.76,0,0,1,84.3,17.3a7.65,7.65,0,0,1,3.12-3.13,5.08,5.08,0,0,1,2.43-.59,8,8,0,0,1,2.19.34c.31.12.57.22.79.32a1.65,1.65,0,0,0,.56.19,1.14,1.14,0,0,0,.4-.11,2,2,0,0,1,.92-.21h.17a3.29,3.29,0,0,1,2.05.67,2.25,2.25,0,0,1,.7,1.48,8.49,8.49,0,0,1,.08,1.17,8.39,8.39,0,0,1,0,.84c0,.36,0,.72,0,1.08,0,1.56,0,2.93,0,4.12s0,2.49,0,3.72-.07,2.65-.18,4.25A36.4,36.4,0,0,1,97,36a15.4,15.4,0,0,1-1.61,4.69,5.58,5.58,0,0,1-3.31,2.81,8.41,8.41,0,0,1-2.08.26,8.31,8.31,0,0,1-1.3-.1,6.23,6.23,0,0,1-3.09-1.3,7.16,7.16,0,0,1-1.24-1.28c-1.27-1.72-1.9-3-1.9-4V37c0-.91.37-1.37,1-1.37h0c.66,0,1.23.58,1.74,1.68a14.5,14.5,0,0,0,.89,2,4,4,0,0,0,1.31,1.46,2,2,0,0,0,1.06.28A3.43,3.43,0,0,0,89.47,40.83Zm1-14.91A8.14,8.14,0,0,0,92,23.34a20,20,0,0,0,.81-2.84c0-.16.07-.33.11-.51a.36.36,0,0,1,0-.11c0-.86,0-1.71,0-2.57a5.82,5.82,0,0,0-3.09-1.09,3.1,3.1,0,0,0-.92.13,4.65,4.65,0,0,0-2.84,2.93,10.79,10.79,0,0,0-.72,2.65,10.75,10.75,0,0,0-.15,1.77,10.43,10.43,0,0,0,.09,1.38,3.75,3.75,0,0,0,1.1,2.37,1.55,1.55,0,0,0,1,.4,1.35,1.35,0,0,0,.43-.08A3.75,3.75,0,0,0,89.27,27,13.83,13.83,0,0,0,90.42,25.92Z"/><path class="cls-1" d="M80.53,22.42A8.41,8.41,0,0,1,80,25.3a6.76,6.76,0,0,1-2.9,3.52A9,9,0,0,1,73.9,29.9a7.73,7.73,0,0,1-1,.06,7.58,7.58,0,0,1-2.42-.4,5.75,5.75,0,0,1-3-2.53A9,9,0,0,1,66.22,23q0-.34,0-.69a8.34,8.34,0,0,1,.75-3.5,5.87,5.87,0,0,1,3-2.9,9.92,9.92,0,0,1,3.6-.62l.72,0a6.62,6.62,0,0,1,4,1.43,7.46,7.46,0,0,1,2.14,4A9.78,9.78,0,0,1,80.53,22.42Z"/><path class="cls-1" d="M82,12.3a2.55,2.55,0,0,1-.16.9,2.16,2.16,0,0,1-.91,1.11,2.86,2.86,0,0,1-1,.34l-.3,0a2.58,2.58,0,0,1-.76-.13,1.81,1.81,0,0,1-1-.8,2.76,2.76,0,0,1-.4-1.28c0-.07,0-.14,0-.21a2.56,2.56,0,0,1,.24-1.1,1.81,1.81,0,0,1,.92-.91A3.17,3.17,0,0,1,79.8,10H80a2.06,2.06,0,0,1,1.27.45A2.42,2.42,0,0,1,82,11.76,3.29,3.29,0,0,1,82,12.3Z"/><path class="cls-1" d="M75.61,10.73a2.85,2.85,0,0,1-.15.91,2.15,2.15,0,0,1-.92,1.1,2.69,2.69,0,0,1-1,.34,1.51,1.51,0,0,1-.3,0,2.46,2.46,0,0,1-.76-.12,1.85,1.85,0,0,1-1-.8,2.68,2.68,0,0,1-.4-1.28,1.49,1.49,0,0,1,0-.21,2.64,2.64,0,0,1,.24-1.11,1.91,1.91,0,0,1,.93-.91,3.08,3.08,0,0,1,1.13-.19h.23a2.05,2.05,0,0,1,1.26.45,2.32,2.32,0,0,1,.67,1.26A3.17,3.17,0,0,1,75.61,10.73Z"/><path class="cls-1" d="M69.62,12.34a2.51,2.51,0,0,1-.16.9,2.16,2.16,0,0,1-.91,1.11,2.86,2.86,0,0,1-1,.34l-.3,0a2.46,2.46,0,0,1-.75-.13,1.82,1.82,0,0,1-1-.79,2.83,2.83,0,0,1-.4-1.28c0-.08,0-.15,0-.22a2.56,2.56,0,0,1,.24-1.1,1.81,1.81,0,0,1,.92-.91,3.17,3.17,0,0,1,1.14-.2h.22a2.06,2.06,0,0,1,1.27.45,2.42,2.42,0,0,1,.67,1.27A3.07,3.07,0,0,1,69.62,12.34Z"/></g></g></svg>