<svg xmlns="http://www.w3.org/2000/svg" viewBox="0 0 35.47 33.65"><defs><style>.cls-1{fill:#f6f7f8;}</style></defs><title>Asset 2</title><g id="Layer_2" data-name="Layer 2"><g id="Layer_1-2" data-name="Layer 1"><path class="cls-1" d="M17.77,0H33.63c1.19,0,1.82.77,1.82,2.25,0,9.72,0,19.44,0,29.16,0,1.13-.6,2.24-1.8,2.23H1.78C.59,33.65,0,32.56,0,31.45Q0,16.77,0,2.09A1.93,1.93,0,0,1,1.71,0Zm14.47,7.3-.19.19L25,15.26c-2,2.24-4.07,4.49-6.12,6.73a1.42,1.42,0,0,1-2.24,0l-6-6.59-7-7.67c-.12-.14-.25-.26-.39-.4V29.66h29ZM30.39,4H5.07L17.73,17.87Z"/></g></g></svg>