<svg xmlns="http://www.w3.org/2000/svg" viewBox="0 0 33.81 43"><defs><style>.cls-1{fill:#f6f7f8;}</style></defs><title>Asset 1</title><g id="Layer_2" data-name="Layer 2"><g id="Layer_1-2" data-name="Layer 1"><path class="cls-1" d="M30.86,27.9a16.87,16.87,0,0,1-1,5.77,13.54,13.54,0,0,1-5.8,7,18.19,18.19,0,0,1-6.46,2.15,13.46,13.46,0,0,1-1.92.13,15.11,15.11,0,0,1-4.83-.81,11.62,11.62,0,0,1-6.06-5.06A18,18,0,0,1,2.22,29c0-.46-.06-.92-.06-1.37a16.69,16.69,0,0,1,1.5-7,11.76,11.76,0,0,1,5.9-5.81,20,20,0,0,1,7.21-1.23c.48,0,.95,0,1.43,0a13.4,13.4,0,0,1,8.06,2.86,14.9,14.9,0,0,1,4.27,8.06A17.7,17.7,0,0,1,30.86,27.9Z"/><path class="cls-1" d="M33.81,7.64a5.44,5.44,0,0,1-.31,1.82,4.3,4.3,0,0,1-1.83,2.21,5.73,5.73,0,0,1-2,.67,4.3,4.3,0,0,1-.61.05,4.7,4.7,0,0,1-1.51-.26,3.64,3.64,0,0,1-1.92-1.59A5.61,5.61,0,0,1,24.82,8a3.17,3.17,0,0,1,0-.43,5.3,5.3,0,0,1,.47-2.2,3.67,3.67,0,0,1,1.85-1.83,6.47,6.47,0,0,1,2.27-.39h.45a4.18,4.18,0,0,1,2.53.91,4.61,4.61,0,0,1,1.34,2.52A5.61,5.61,0,0,1,33.81,7.64Z"/><path class="cls-1" d="M21,4.51a5.35,5.35,0,0,1-.32,1.81,4.26,4.26,0,0,1-1.82,2.22,6,6,0,0,1-2,.68,6,6,0,0,1-.61,0A4.76,4.76,0,0,1,14.72,9a3.6,3.6,0,0,1-1.9-1.59A5.59,5.59,0,0,1,12,4.85a3.22,3.22,0,0,1,0-.43,5.23,5.23,0,0,1,.48-2.21A3.69,3.69,0,0,1,14.32.39,6.25,6.25,0,0,1,16.59,0H17a4.16,4.16,0,0,1,2.53.91,4.69,4.69,0,0,1,1.35,2.52A6.46,6.46,0,0,1,21,4.51Z"/><path class="cls-1" d="M9,7.73A5.2,5.2,0,0,1,8.7,9.54a4.22,4.22,0,0,1-1.83,2.21,5.62,5.62,0,0,1-2,.68,6,6,0,0,1-.61,0,5,5,0,0,1-1.51-.25A3.67,3.67,0,0,1,.82,10.63,5.63,5.63,0,0,1,0,8.06c0-.14,0-.28,0-.43a5.3,5.3,0,0,1,.47-2.2A3.69,3.69,0,0,1,2.33,3.6a6.16,6.16,0,0,1,2.26-.38H5a4.27,4.27,0,0,1,2.54.9A4.83,4.83,0,0,1,8.92,6.66,5.46,5.46,0,0,1,9,7.73Z"/></g></g></svg>